<?xml version="1.0" encoding="UTF-8" standalone="no"?>
<!DOCTYPE svg PUBLIC "-//W3C//DTD SVG 1.1//EN" "http://www.w3.org/Graphics/SVG/1.1/DTD/svg11.dtd">
<svg width="100%" height="100%" viewBox="0 0 147 34" version="1.1" xmlns="http://www.w3.org/2000/svg" xmlns:xlink="http://www.w3.org/1999/xlink" xml:space="preserve" xmlns:serif="http://www.serif.com/" style="fill-rule:evenodd;clip-rule:evenodd;stroke-linejoin:round;stroke-miterlimit:2;">
    <g transform="matrix(1.1989,0,0,1.1989,-538.191,-733.306)">
        <g transform="matrix(1.00018,0,0,1.00018,450.369,621.38)">
            <path d="M0,6.989C0.24,8.55 0.625,9.031 1.009,9.391C1.562,9.895 2.666,10.255 4.132,10.255C6.437,10.255 7.494,9.054 7.494,7.734C7.494,6.485 6.869,5.788 5.284,5.115L2.282,3.843C-0.191,2.786 -0.864,1.297 -0.864,-0.336C-0.864,-2.906 0.889,-4.972 4.996,-4.972C6.101,-4.972 7.397,-4.803 8.335,-4.371C8.935,-4.083 9.175,-3.627 9.175,-2.834C9.175,-2.21 9.104,-1.273 9.007,-0.408L7.83,-0.408C7.59,-1.969 7.374,-2.474 7.014,-2.762C6.581,-3.122 5.692,-3.266 4.516,-3.266C2.187,-3.266 1.298,-2.042 1.298,-0.745C1.298,0.384 1.777,1.153 3.795,1.969L6.558,3.074C8.911,4.011 9.752,5.428 9.752,7.205C9.752,10.28 7.397,11.961 3.915,11.961C2.498,11.961 1.009,11.672 0.169,11.264C-1.057,10.663 -1.272,9.967 -1.272,8.766C-1.272,8.19 -1.248,7.614 -1.2,6.989L0,6.989Z" style="fill:rgb(138,115,180);fill-rule:nonzero;"/>
        </g>
        <g transform="matrix(1.00018,0,0,1.00018,464.395,630.124)">
            <path d="M0,-11.264C-0.841,-11.264 -1.369,-11.889 -1.369,-12.681C-1.369,-13.546 -0.793,-14.17 0.072,-14.17C1.057,-14.17 1.489,-13.546 1.489,-12.729C1.489,-11.889 0.913,-11.264 0,-11.264M0.24,2.858C-0.312,2.858 -1.369,2.858 -2.426,2.906L-2.426,1.609C-1.297,1.513 -0.913,1.441 -0.744,1.249C-0.624,1.105 -0.553,0.793 -0.553,-0.048L-0.553,-4.611C-0.553,-5.524 -0.648,-6.053 -0.889,-6.244C-1.104,-6.437 -1.417,-6.485 -1.777,-6.485C-1.945,-6.485 -2.258,-6.461 -2.426,-6.437L-2.426,-7.638C-1.417,-8.214 -0.408,-8.382 0.216,-8.382C0.913,-8.382 1.489,-8.142 1.489,-6.725C1.489,-4.707 1.393,-2.186 1.393,-0.072C1.393,0.769 1.465,1.033 1.609,1.249C1.753,1.441 2.09,1.513 3.242,1.609L3.242,2.906C2.21,2.882 0.793,2.858 0.24,2.858" style="fill:rgb(138,115,180);fill-rule:nonzero;"/>
        </g>
        <g transform="matrix(1.00018,0,0,1.00018,472.031,621.693)">
            <path d="M0,11.288C-0.552,11.288 -1.753,11.288 -2.81,11.336L-2.81,10.039C-1.681,9.919 -1.297,9.871 -1.128,9.679C-1.008,9.511 -0.937,9.223 -0.937,8.382L-0.937,3.819C-0.937,2.906 -1.032,2.377 -1.272,2.185C-1.488,1.993 -1.801,1.945 -2.161,1.945C-2.329,1.945 -2.642,1.969 -2.81,1.993L-2.81,0.792C-1.801,0.216 -0.864,0.048 -0.264,0.048C0.36,0.048 0.937,0.288 0.985,1.681C2.066,0.624 3.555,-0.048 5.116,-0.048C6.317,-0.048 7.446,0.408 7.854,1.729C8.959,0.672 10.568,-0.048 12.129,-0.048C13.065,-0.048 13.883,0.24 14.339,0.745C14.867,1.321 15.083,2.233 15.083,3.914L15.083,8.382C15.083,9.054 15.132,9.343 15.252,9.559C15.396,9.799 15.708,9.919 17.028,10.039L17.028,11.336C15.996,11.312 14.771,11.288 14.219,11.288C13.69,11.288 12.466,11.312 11.433,11.336L11.433,10.039C12.394,9.943 12.777,9.847 12.922,9.655C13.065,9.511 13.138,9.199 13.138,8.334L13.138,4.371C13.138,3.53 13.065,2.858 12.777,2.474C12.466,2.041 11.889,1.849 11.049,1.849C10.063,1.849 8.863,2.209 7.998,2.762C8.022,3.05 8.046,3.53 8.046,3.938L8.046,8.382C8.046,9.054 8.095,9.391 8.19,9.559C8.311,9.799 8.599,9.919 9.848,10.039L9.848,11.336C8.887,11.312 7.686,11.288 7.157,11.288C6.629,11.288 5.38,11.312 4.348,11.336L4.348,10.039C5.332,9.943 5.717,9.847 5.86,9.655C6.005,9.511 6.077,9.199 6.077,8.334L6.077,4.371C6.077,3.53 6.005,2.882 5.717,2.474C5.429,2.065 4.828,1.849 4.035,1.849C3.026,1.849 1.874,2.162 1.009,2.738L1.009,8.358C1.009,9.174 1.058,9.487 1.226,9.679C1.369,9.871 1.657,9.943 2.738,10.039L2.738,11.336C1.682,11.312 0.601,11.288 0,11.288" style="fill:rgb(138,115,180);fill-rule:nonzero;"/>
        </g>
        <g transform="matrix(1.00018,0,0,1.00018,496.578,629.331)">
            <path d="M0,2.258C2.474,2.258 3.65,0.553 3.65,-1.849C3.65,-3.987 2.906,-5.908 0.433,-5.908C-0.553,-5.908 -1.705,-5.451 -2.522,-4.851L-2.522,1.85C-1.874,2.162 -0.816,2.258 0,2.258M-3.242,9.92C-3.771,9.92 -5.26,9.944 -6.365,9.967L-6.365,8.671C-5.187,8.574 -4.828,8.479 -4.636,8.238C-4.491,8.046 -4.491,7.494 -4.491,6.989L-4.491,-3.818C-4.491,-4.731 -4.588,-5.236 -4.828,-5.451C-5.02,-5.62 -5.356,-5.692 -5.716,-5.692C-5.885,-5.692 -6.196,-5.668 -6.389,-5.644L-6.389,-6.845C-5.356,-7.421 -4.443,-7.589 -3.819,-7.589C-3.171,-7.589 -2.618,-7.373 -2.546,-6.004C-1.657,-6.868 -0.192,-7.709 1.393,-7.709C4.419,-7.709 5.764,-5.331 5.764,-2.041C5.764,1.442 3.771,3.987 -0.145,3.987C-0.913,3.987 -1.754,3.843 -2.522,3.675L-2.522,6.605C-2.522,7.542 -2.474,8.022 -2.233,8.262C-2.065,8.454 -1.897,8.574 -0.072,8.671L-0.072,9.967C-1.177,9.944 -2.618,9.92 -3.242,9.92" style="fill:rgb(138,115,180);fill-rule:nonzero;"/>
        </g>
        <g transform="matrix(1.00018,0,0,1.00018,506.928,615.495)">
            <path d="M0,17.485C-0.553,17.485 -1.609,17.485 -2.666,17.533L-2.666,16.236C-1.537,16.14 -1.153,16.068 -0.985,15.876C-0.865,15.708 -0.793,15.42 -0.793,14.579L-0.793,5.068C-0.793,3.315 -0.841,2.306 -1.153,2.018C-1.369,1.801 -1.729,1.801 -2.065,1.801C-2.234,1.801 -2.522,1.826 -2.69,1.85L-2.69,0.673C-1.657,0.12 -0.673,-0.048 -0.024,-0.048C0.744,-0.048 1.2,0.193 1.2,1.537C1.2,2.45 1.177,5.236 1.177,6.917L1.177,14.555C1.177,15.371 1.249,15.684 1.393,15.876C1.537,16.068 1.897,16.14 3.002,16.236L3.002,17.533C1.969,17.509 0.552,17.485 0,17.485" style="fill:rgb(138,115,180);fill-rule:nonzero;"/>
        </g>
        <g transform="matrix(1.00018,0,0,1.00018,512.451,624.96)">
            <path d="M0,11.6C0.12,12.272 0.192,12.584 0.433,12.801C0.576,12.897 0.816,12.969 1.104,12.969C1.633,12.969 2.09,12.633 2.449,11.96C2.857,11.264 3.387,10.039 4.131,8.069C3.65,8.069 3.362,7.757 3.146,7.277L-0.097,-0.097C-0.385,-0.745 -0.625,-1.225 -0.937,-1.465C-1.153,-1.634 -1.562,-1.682 -2.018,-1.73L-2.018,-3.026C-1.225,-3.003 0.433,-2.979 1.009,-2.979C1.561,-2.979 2.618,-3.003 3.41,-3.026L3.41,-1.73C3.05,-1.706 2.714,-1.658 2.378,-1.609C1.945,-1.538 1.825,-1.297 1.825,-1.009C1.825,-0.721 1.945,-0.385 2.161,0.096C3.074,2.185 4.035,4.347 4.875,6.484C5.572,4.539 6.244,2.545 6.965,0.528C7.229,-0.241 7.325,-0.769 7.325,-1.129C7.325,-1.37 7.157,-1.538 6.965,-1.586C6.604,-1.658 6.101,-1.706 5.692,-1.73L5.692,-3.026C6.461,-3.003 7.661,-2.979 8.189,-2.979C8.622,-2.979 9.823,-3.003 10.543,-3.026L10.543,-1.73C10.039,-1.706 9.703,-1.609 9.486,-1.442C9.175,-1.177 9.006,-0.745 8.598,0.312L5.764,7.973C4.947,10.183 4.467,11.432 3.891,12.56C3.098,14.121 2.065,14.626 0.769,14.626C0.264,14.626 -0.145,14.554 -0.505,14.41C-1.009,14.194 -1.297,13.713 -1.297,13.041C-1.297,12.489 -1.249,12.056 -1.153,11.6L0,11.6Z" style="fill:rgb(138,115,180);fill-rule:nonzero;"/>
        </g>
        <g transform="matrix(1.00018,0,0,1.00018,529.69,621.786)">
            <path d="M0,5.069C-1.47,5.639 -2.88,6.299 -4.14,7.409C-4.89,8.099 -5.34,8.939 -5.46,9.989C-5.64,11.759 -4.68,12.509 -3.09,12.749C-1.2,13.049 1.08,11.459 1.771,9.719C2.1,8.909 2.25,8.069 2.22,7.199C2.16,6.239 1.92,5.309 1.38,4.499C0.87,4.709 0.42,4.889 0,5.069M-1.229,-4.35C-1.59,-3.781 -1.59,-3.091 -1.32,-2.401C-0.99,-1.531 -0.45,-0.87 0.15,-0.241C0.9,0.539 1.65,1.289 2.34,2.099C2.64,2.429 2.88,2.849 3.21,3.329C3.81,3.089 4.439,2.879 5.1,2.639C6.06,2.279 6.93,1.649 7.74,0.989C8.16,0.659 8.16,0.659 8.55,1.11C8.43,1.469 8.16,1.709 7.89,1.949C6.81,2.849 5.61,3.299 4.35,3.689C4.08,3.779 3.78,3.899 3.42,4.019C3.51,4.259 3.57,4.469 3.66,4.679C4.14,5.759 4.14,6.899 3.96,8.099C3.72,9.809 3,11.219 1.95,12.419C1.59,12.839 1.17,13.229 0.69,13.469C-0.39,14.099 -1.59,14.429 -2.819,14.249C-4.26,14.039 -5.43,13.229 -6.27,11.849C-6.84,10.919 -6.689,9.329 -6,8.279C-5.55,7.589 -5.01,6.989 -4.38,6.509C-2.88,5.429 -1.26,4.739 0.39,4.139C0.54,4.109 0.66,4.049 0.78,3.989C0.84,3.989 0.84,3.959 0.93,3.869C0.48,3.359 0.03,2.879 -0.42,2.369C-0.93,1.829 -1.5,1.289 -1.979,0.689C-2.49,0.029 -2.97,-0.721 -3.42,-1.471C-4.109,-2.671 -4.17,-4.02 -3.569,-5.281C-2.67,-7.201 -1.29,-8.58 0.57,-9.06C1.8,-9.36 2.85,-8.58 3,-6.96C3,-6.721 2.94,-6.451 2.91,-6.21C2.88,-5.94 2.7,-5.82 2.49,-5.82C2.25,-5.85 2.04,-5.94 1.98,-6.27C1.95,-6.451 1.92,-6.66 1.86,-6.9C0.42,-6.6 -0.479,-5.551 -1.229,-4.35" style="fill:rgb(209,130,181);fill-rule:nonzero;"/>
        </g>
        <g transform="matrix(1.00018,0,0,1.00018,539.143,631.747)">
            <path d="M0,-7.53C0,-7.5 -0.03,-7.5 -0.03,-7.47C-0.271,-6.72 -0.57,-5.97 -0.75,-5.22C-0.99,-4.26 -1.17,-3.27 -1.021,-2.22C-0.12,-4.02 0.42,-6 1.199,-7.83C0.569,-8.31 0.33,-8.25 0,-7.53M4.02,0.179C5.13,-1.591 5.909,-3.54 6.569,-5.55C6.659,-5.85 6.749,-6.12 6.84,-6.39C6.899,-6.54 6.93,-6.72 7.05,-6.81C7.17,-6.93 7.38,-7.02 7.529,-6.99C7.739,-6.93 7.77,-6.66 7.709,-6.42C7.619,-6.03 7.499,-5.64 7.38,-5.31C6.869,-3.96 6.359,-2.64 5.789,-1.35C5.46,-0.54 5.069,0.27 4.56,0.929C4.05,1.559 3.39,2.13 2.55,1.979C1.77,1.86 1.17,1.32 0.93,0.42C0.72,-0.33 0.63,-1.111 0.479,-1.89C0.449,-1.801 0.359,-1.68 0.3,-1.53C0.06,-0.93 -0.15,-0.301 -0.54,0.21C-0.99,0.78 -1.62,0.9 -2.22,0.54C-3.36,-0.18 -3.75,-1.29 -3.601,-2.7C-3.36,-4.83 -2.76,-6.81 -1.681,-8.61C-1.05,-9.63 0.359,-9.54 1.109,-9.18C1.29,-9.09 1.439,-9 1.56,-8.91C1.649,-8.94 1.71,-8.94 1.71,-8.97C2.13,-9.63 2.279,-9.66 2.909,-9.33C3.51,-8.97 3.75,-8.4 3.75,-7.68C3.75,-7.02 3.689,-6.3 3.6,-5.64C3.449,-4.35 3.21,-3.09 3.029,-1.83C2.939,-1.08 2.939,-0.361 2.909,0.389C2.909,0.599 3,0.809 3.06,1.079C3.569,0.869 3.81,0.54 4.02,0.179" style="fill:rgb(209,130,181);fill-rule:nonzero;"/>
        </g>
        <g transform="matrix(1.00018,0,0,1.00018,544.483,632.076)">
            <path d="M0,-13.739C-1.229,-13.859 -2.489,-14.009 -3.659,-14.489C-4.199,-14.699 -4.68,-15.149 -4.89,-15.809C-4.71,-16.079 -4.529,-15.989 -4.409,-15.839C-3.779,-14.999 -2.909,-14.939 -2.04,-14.879C-0.989,-14.789 0.061,-14.729 1.08,-14.939C1.471,-15.029 1.891,-14.939 2.37,-14.939C2.641,-16.619 2.91,-18.269 3.21,-20.009C3.33,-19.979 3.48,-19.979 3.63,-19.948C3.84,-19.919 4.05,-19.889 4.23,-19.829C4.5,-19.709 4.83,-19.649 5.04,-19.469C5.46,-19.079 5.851,-18.719 5.67,-17.909C5.49,-17.189 5.55,-16.379 5.49,-15.479C5.97,-15.539 6.36,-15.539 6.75,-15.629C8.61,-16.079 10.5,-16.139 12.39,-16.199C13.17,-16.199 13.95,-16.229 14.729,-16.199C15.689,-16.199 16.62,-15.959 17.46,-15.479C17.64,-15.359 17.819,-15.239 18,-15.119C18.569,-14.639 18.75,-13.499 17.699,-13.229C17.79,-13.499 17.85,-13.739 17.909,-14.039C17.399,-14.429 16.8,-14.669 16.199,-14.789C15.72,-14.849 15.239,-14.789 14.76,-14.759C14.04,-14.759 13.319,-14.789 12.6,-14.729C11.07,-14.609 9.54,-14.699 8.04,-14.309C7.17,-14.069 6.3,-13.859 5.4,-13.649C5.13,-13.139 4.68,-9.689 4.65,-8.549C4.59,-7.619 4.41,-6.689 4.38,-5.76C4.29,-3.629 4.38,-1.499 4.29,0.6C4.26,1.95 4.41,3.15 4.74,4.44C4.771,4.53 4.98,4.65 5.07,4.62C5.28,4.53 5.521,4.38 5.64,4.2C5.91,3.66 6.12,3.12 6.3,2.551C6.72,1.171 7.14,-0.239 7.53,-1.619C8.04,-3.3 8.52,-5.01 9,-6.689C9.15,-7.169 9.33,-7.319 9.51,-7.199C9.81,-7.019 9.69,-6.719 9.63,-6.449C9.21,-4.709 8.82,-2.939 8.37,-1.199C8.1,-0.03 7.771,1.111 7.38,2.22C7.05,3.18 6.6,4.08 6.21,5.011C6.18,5.07 6.15,5.1 6.12,5.13C5.37,6.27 3.42,6.24 2.73,5.07C2.07,3.87 1.681,2.58 1.681,1.14C1.65,-0.239 1.561,-1.619 1.53,-2.999C1.471,-5.28 1.65,-7.529 1.771,-9.779C1.86,-10.949 2.04,-12.119 2.16,-13.289L2.16,-13.739C1.41,-13.739 0.721,-13.679 0,-13.739" style="fill:rgb(209,130,181);fill-rule:nonzero;"/>
        </g>
        <g transform="matrix(1.00018,0,0,1.00018,556.305,629.616)">
            <path d="M0,-8.73C-0.061,-8.67 -0.12,-8.64 -0.181,-8.64C-0.721,-8.37 -1.8,-9.03 -1.92,-9.69C-2.01,-10.17 -1.5,-11.19 -1.08,-11.34C-0.54,-11.55 0.06,-11.25 0.3,-10.59C0.39,-10.38 0.479,-10.14 0.51,-9.96C0.45,-9.42 0.3,-9.03 0,-8.73M-1.23,-7.26C-0.36,-6.66 -0.21,-6.24 -0.36,-4.92C-0.48,-3.87 -0.63,-2.85 -0.78,-1.8C-0.78,-1.68 -0.75,-1.56 -0.75,-1.44C-0.721,-0.99 -0.69,-0.54 -0.69,-0.09C-0.721,0.72 -0.69,0.84 -0.271,1.47C0.45,1.32 0.93,0.72 1.319,0.03C2.04,-1.2 2.699,-2.49 3.18,-3.9C3.27,-4.11 3.359,-4.32 3.449,-4.53C3.449,-4.59 3.54,-4.62 3.6,-4.68C3.84,-4.38 3.96,-4.05 3.84,-3.63C3.72,-3.18 3.6,-2.7 3.42,-2.25C2.939,-1.05 2.52,0.21 1.8,1.29C1.409,1.83 0.989,2.28 0.359,2.459C-0.69,2.82 -2.04,2.249 -2.641,1.17C-3.12,0.27 -3.24,-0.72 -3.24,-1.74C-3.18,-3.66 -2.73,-5.49 -2.101,-7.26C-2.07,-7.32 -2.01,-7.38 -1.92,-7.53C-1.681,-7.44 -1.41,-7.38 -1.23,-7.26" style="fill:rgb(209,130,181);fill-rule:nonzero;"/>
        </g>
        <g transform="matrix(1.00018,0,0,1.00018,563.897,629.496)">
            <path d="M0,-3.54C-0.33,-2.61 -0.63,-1.65 -0.931,-0.69C-1.17,0.06 -1.38,0.78 -1.59,1.53C-1.71,1.98 -1.83,2.1 -2.221,1.98C-2.641,1.86 -3.061,1.71 -3.48,1.62C-4.021,1.53 -4.26,1.14 -4.38,0.6C-4.47,0.18 -4.53,-0.3 -4.53,-0.75C-4.53,-2.79 -4.26,-4.8 -3.69,-6.75C-3.66,-6.87 -3.601,-6.99 -3.54,-7.14C-3.181,-7.08 -2.79,-7.08 -2.49,-6.93C-2.07,-6.72 -1.83,-6.27 -1.681,-5.79C-1.44,-5.04 -1.53,-4.26 -1.561,-3.51C-1.59,-3.33 -1.59,-3.15 -1.561,-2.97C-1.261,-3.78 -0.99,-4.59 -0.66,-5.37C-0.33,-6.18 0.029,-6.93 0.42,-7.71C0.51,-7.95 0.689,-8.13 0.84,-8.37C1.439,-9.33 2.88,-9.03 3.3,-7.86C3.6,-7.02 3.6,-6.12 3.449,-5.22C3.39,-4.8 3.329,-4.38 3.3,-3.99C3.18,-3.06 3.029,-2.1 2.939,-1.17C2.76,0.51 2.55,2.22 2.76,3.93C2.76,4.02 2.789,4.11 2.789,4.23C3.09,4.23 3.21,3.99 3.39,3.81C4.35,2.7 4.949,1.32 5.459,-0.12C5.76,-0.96 6.119,-1.8 6.419,-2.64C6.6,-3.18 6.689,-3.72 6.81,-4.26C6.839,-4.47 6.93,-4.68 7.14,-4.65C7.439,-4.62 7.439,-4.35 7.409,-4.11C7.319,-3.69 7.26,-3.24 7.14,-2.82C6.93,-1.98 6.749,-1.14 6.419,-0.33C5.97,0.78 5.789,2.01 5.159,3C4.739,3.69 4.35,4.41 3.72,4.95C2.729,5.79 1.319,5.55 0.75,3.99C0.54,3.39 0.39,2.7 0.33,2.04C0.09,0.42 0.21,-1.23 0.479,-2.85C0.63,-3.84 0.81,-4.83 0.989,-5.82C0.96,-5.85 0.899,-5.85 0.869,-5.88C0.6,-5.1 0.27,-4.32 0,-3.54" style="fill:rgb(209,130,181);fill-rule:nonzero;"/>
        </g>
    </g>
</svg>
