<?xml version="1.0" encoding="UTF-8" standalone="no"?>
<!DOCTYPE svg PUBLIC "-//W3C//DTD SVG 1.1//EN" "http://www.w3.org/Graphics/SVG/1.1/DTD/svg11.dtd">
<svg width="100%" height="100%" viewBox="0 0 162 31" version="1.1" xmlns="http://www.w3.org/2000/svg" xmlns:xlink="http://www.w3.org/1999/xlink" xml:space="preserve" xmlns:serif="http://www.serif.com/" style="fill-rule:evenodd;clip-rule:evenodd;stroke-linejoin:round;stroke-miterlimit:2;">
    <g transform="matrix(1.20799,0,0,1.20799,-308.128,-742.12)">
        <g transform="matrix(1.00018,0,0,1.00018,256.636,621.38)">
            <path d="M0,6.989C0.24,8.55 0.625,9.031 1.009,9.391C1.562,9.895 2.666,10.255 4.132,10.255C6.437,10.255 7.494,9.054 7.494,7.734C7.494,6.485 6.869,5.788 5.284,5.115L2.282,3.843C-0.191,2.786 -0.864,1.297 -0.864,-0.336C-0.864,-2.906 0.889,-4.972 4.996,-4.972C6.101,-4.972 7.397,-4.803 8.335,-4.371C8.935,-4.083 9.175,-3.627 9.175,-2.834C9.175,-2.21 9.104,-1.273 9.007,-0.408L7.83,-0.408C7.59,-1.969 7.374,-2.474 7.014,-2.762C6.581,-3.122 5.692,-3.266 4.516,-3.266C2.187,-3.266 1.298,-2.042 1.298,-0.745C1.298,0.384 1.777,1.153 3.795,1.969L6.558,3.074C8.911,4.011 9.752,5.428 9.752,7.205C9.752,10.28 7.397,11.961 3.915,11.961C2.498,11.961 1.009,11.672 0.169,11.264C-1.057,10.663 -1.272,9.967 -1.272,8.766C-1.272,8.19 -1.248,7.614 -1.2,6.989L0,6.989Z" style="fill:rgb(138,115,180);fill-rule:nonzero;"/>
        </g>
        <g transform="matrix(1.00018,0,0,1.00018,270.662,630.124)">
            <path d="M0,-11.264C-0.841,-11.264 -1.369,-11.889 -1.369,-12.681C-1.369,-13.546 -0.793,-14.17 0.072,-14.17C1.057,-14.17 1.489,-13.546 1.489,-12.729C1.489,-11.889 0.913,-11.264 0,-11.264M0.24,2.858C-0.312,2.858 -1.369,2.858 -2.426,2.906L-2.426,1.609C-1.297,1.513 -0.913,1.441 -0.744,1.249C-0.624,1.105 -0.553,0.793 -0.553,-0.048L-0.553,-4.611C-0.553,-5.524 -0.648,-6.053 -0.889,-6.244C-1.104,-6.437 -1.417,-6.485 -1.777,-6.485C-1.945,-6.485 -2.258,-6.461 -2.426,-6.437L-2.426,-7.638C-1.417,-8.214 -0.408,-8.382 0.216,-8.382C0.913,-8.382 1.489,-8.142 1.489,-6.725C1.489,-4.707 1.393,-2.186 1.393,-0.072C1.393,0.769 1.465,1.033 1.609,1.249C1.753,1.441 2.09,1.513 3.242,1.609L3.242,2.906C2.21,2.882 0.793,2.858 0.24,2.858" style="fill:rgb(138,115,180);fill-rule:nonzero;"/>
        </g>
        <g transform="matrix(1.00018,0,0,1.00018,278.298,621.693)">
            <path d="M0,11.288C-0.552,11.288 -1.753,11.288 -2.81,11.336L-2.81,10.039C-1.681,9.919 -1.297,9.871 -1.128,9.679C-1.008,9.511 -0.937,9.223 -0.937,8.382L-0.937,3.819C-0.937,2.906 -1.032,2.377 -1.272,2.185C-1.488,1.993 -1.801,1.945 -2.161,1.945C-2.329,1.945 -2.642,1.969 -2.81,1.993L-2.81,0.792C-1.801,0.216 -0.864,0.048 -0.264,0.048C0.36,0.048 0.937,0.288 0.985,1.681C2.066,0.624 3.555,-0.048 5.116,-0.048C6.317,-0.048 7.446,0.408 7.854,1.729C8.959,0.672 10.568,-0.048 12.129,-0.048C13.065,-0.048 13.883,0.24 14.339,0.745C14.867,1.321 15.083,2.233 15.083,3.914L15.083,8.382C15.083,9.054 15.132,9.343 15.252,9.559C15.396,9.799 15.708,9.919 17.028,10.039L17.028,11.336C15.996,11.312 14.771,11.288 14.219,11.288C13.69,11.288 12.466,11.312 11.433,11.336L11.433,10.039C12.394,9.943 12.777,9.847 12.922,9.655C13.065,9.511 13.138,9.199 13.138,8.334L13.138,4.371C13.138,3.53 13.065,2.858 12.777,2.474C12.466,2.041 11.889,1.849 11.049,1.849C10.063,1.849 8.863,2.209 7.998,2.762C8.022,3.05 8.046,3.53 8.046,3.938L8.046,8.382C8.046,9.054 8.095,9.391 8.19,9.559C8.311,9.799 8.599,9.919 9.848,10.039L9.848,11.336C8.887,11.312 7.686,11.288 7.157,11.288C6.629,11.288 5.38,11.312 4.348,11.336L4.348,10.039C5.332,9.943 5.717,9.847 5.86,9.655C6.005,9.511 6.077,9.199 6.077,8.334L6.077,4.371C6.077,3.53 6.005,2.882 5.717,2.474C5.429,2.065 4.828,1.849 4.035,1.849C3.026,1.849 1.874,2.162 1.009,2.738L1.009,8.358C1.009,9.174 1.058,9.487 1.226,9.679C1.369,9.871 1.657,9.943 2.738,10.039L2.738,11.336C1.682,11.312 0.601,11.288 0,11.288" style="fill:rgb(138,115,180);fill-rule:nonzero;"/>
        </g>
        <g transform="matrix(1.00018,0,0,1.00018,302.844,629.331)">
            <path d="M0,2.258C2.474,2.258 3.65,0.553 3.65,-1.849C3.65,-3.987 2.906,-5.908 0.433,-5.908C-0.553,-5.908 -1.705,-5.451 -2.522,-4.851L-2.522,1.85C-1.874,2.162 -0.816,2.258 0,2.258M-3.242,9.92C-3.771,9.92 -5.26,9.944 -6.365,9.967L-6.365,8.671C-5.187,8.574 -4.828,8.479 -4.636,8.238C-4.491,8.046 -4.491,7.494 -4.491,6.989L-4.491,-3.818C-4.491,-4.731 -4.588,-5.236 -4.828,-5.451C-5.02,-5.62 -5.356,-5.692 -5.716,-5.692C-5.885,-5.692 -6.196,-5.668 -6.389,-5.644L-6.389,-6.845C-5.356,-7.421 -4.443,-7.589 -3.819,-7.589C-3.171,-7.589 -2.618,-7.373 -2.546,-6.004C-1.657,-6.868 -0.192,-7.709 1.393,-7.709C4.419,-7.709 5.764,-5.331 5.764,-2.041C5.764,1.442 3.771,3.987 -0.145,3.987C-0.913,3.987 -1.754,3.843 -2.522,3.675L-2.522,6.605C-2.522,7.542 -2.474,8.022 -2.233,8.262C-2.065,8.454 -1.897,8.574 -0.072,8.671L-0.072,9.967C-1.177,9.944 -2.618,9.92 -3.242,9.92" style="fill:rgb(138,115,180);fill-rule:nonzero;"/>
        </g>
        <g transform="matrix(1.00018,0,0,1.00018,313.194,615.495)">
            <path d="M0,17.485C-0.553,17.485 -1.609,17.485 -2.666,17.533L-2.666,16.236C-1.537,16.14 -1.153,16.068 -0.985,15.876C-0.865,15.708 -0.793,15.42 -0.793,14.579L-0.793,5.068C-0.793,3.315 -0.841,2.306 -1.153,2.018C-1.369,1.801 -1.729,1.801 -2.065,1.801C-2.234,1.801 -2.522,1.826 -2.69,1.85L-2.69,0.673C-1.657,0.12 -0.673,-0.048 -0.024,-0.048C0.744,-0.048 1.2,0.193 1.2,1.537C1.2,2.45 1.177,5.236 1.177,6.917L1.177,14.555C1.177,15.371 1.249,15.684 1.393,15.876C1.537,16.068 1.897,16.14 3.002,16.236L3.002,17.533C1.969,17.509 0.552,17.485 0,17.485" style="fill:rgb(138,115,180);fill-rule:nonzero;"/>
        </g>
        <g transform="matrix(1.00018,0,0,1.00018,318.717,624.96)">
            <path d="M0,11.6C0.12,12.272 0.192,12.584 0.433,12.801C0.576,12.897 0.816,12.969 1.104,12.969C1.633,12.969 2.09,12.633 2.449,11.96C2.857,11.264 3.387,10.039 4.131,8.069C3.65,8.069 3.362,7.757 3.146,7.277L-0.097,-0.097C-0.385,-0.745 -0.625,-1.225 -0.937,-1.465C-1.153,-1.634 -1.562,-1.682 -2.018,-1.73L-2.018,-3.026C-1.225,-3.003 0.433,-2.979 1.009,-2.979C1.561,-2.979 2.618,-3.003 3.41,-3.026L3.41,-1.73C3.05,-1.706 2.714,-1.658 2.378,-1.609C1.945,-1.538 1.825,-1.297 1.825,-1.009C1.825,-0.721 1.945,-0.385 2.161,0.096C3.074,2.185 4.035,4.347 4.875,6.484C5.572,4.539 6.244,2.545 6.965,0.528C7.229,-0.241 7.325,-0.769 7.325,-1.129C7.325,-1.37 7.157,-1.538 6.965,-1.586C6.604,-1.658 6.101,-1.706 5.692,-1.73L5.692,-3.026C6.461,-3.003 7.661,-2.979 8.189,-2.979C8.622,-2.979 9.823,-3.003 10.543,-3.026L10.543,-1.73C10.039,-1.706 9.703,-1.609 9.486,-1.442C9.175,-1.177 9.006,-0.745 8.598,0.312L5.764,7.973C4.947,10.183 4.467,11.432 3.891,12.56C3.098,14.121 2.065,14.626 0.769,14.626C0.264,14.626 -0.145,14.554 -0.505,14.41C-1.009,14.194 -1.297,13.713 -1.297,13.041C-1.297,12.489 -1.249,12.056 -1.153,11.6L0,11.6Z" style="fill:rgb(138,115,180);fill-rule:nonzero;"/>
        </g>
        <g transform="matrix(1.00018,0,0,1.00018,331.757,616.195)">
            <path d="M0,16.809L0,0L2.305,0L2.305,14.936L8.164,14.936L8.164,16.809L0,16.809Z" style="fill:rgb(209,130,181);fill-rule:nonzero;"/>
        </g>
        <g transform="matrix(1.00018,0,0,1.00018,-1090.92,136.648)">
            <path d="M1435.53,496.269L1433.23,496.269L1433.23,483.542L1435.53,483.542L1435.53,496.269ZM1432.92,479.533C1432.92,479.021 1433.06,478.641 1433.34,478.392C1433.62,478.144 1433.96,478.02 1434.38,478.02C1434.81,478.02 1435.17,478.144 1435.45,478.392C1435.73,478.641 1435.87,479.021 1435.87,479.533C1435.87,480.045 1435.73,480.426 1435.45,480.674C1435.17,480.922 1434.81,481.046 1434.38,481.046C1433.96,481.046 1433.62,480.922 1433.34,480.674C1433.06,480.426 1432.92,480.045 1432.92,479.533" style="fill:rgb(209,130,181);fill-rule:nonzero;"/>
        </g>
        <g transform="matrix(1.00018,0,0,1.00018,351.618,632.647)">
            <path d="M0,-12.367L0.12,-10.83C0.616,-11.326 1.201,-11.766 1.873,-12.151C2.546,-12.535 3.298,-12.727 4.131,-12.727C4.883,-12.727 5.523,-12.639 6.052,-12.463C6.58,-12.286 7.008,-12.011 7.336,-11.635C7.664,-11.258 7.904,-10.766 8.057,-10.158C8.208,-9.549 8.284,-8.813 8.284,-7.949L8.284,0.36L5.979,0.36L5.979,-8.189C5.979,-9.966 5.171,-10.854 3.555,-10.854C2.994,-10.854 2.441,-10.726 1.897,-10.47C1.354,-10.214 0.841,-9.861 0.36,-9.413L0.36,0.36L-1.944,0.36L-1.944,-12.367L0,-12.367Z" style="fill:rgb(209,130,181);fill-rule:nonzero;"/>
        </g>
        <g transform="matrix(1.00018,0,0,1.00018,369.487,631.494)">
            <path d="M0,-9.701C-0.864,-9.701 -1.597,-9.385 -2.197,-8.752C-2.798,-8.12 -3.162,-7.156 -3.29,-5.859L2.81,-5.859C2.81,-7.091 2.565,-8.04 2.077,-8.704C1.588,-9.368 0.896,-9.701 0,-9.701M0.216,0C1.032,0 1.74,-0.156 2.341,-0.468C2.941,-0.78 3.425,-1.112 3.794,-1.465L4.826,-0.216C4.33,0.344 3.682,0.833 2.881,1.249C2.081,1.665 1.168,1.873 0.144,1.873C-0.705,1.873 -1.489,1.733 -2.209,1.453C-2.93,1.173 -3.55,0.749 -4.07,0.18C-4.591,-0.388 -4.999,-1.093 -5.295,-1.933C-5.591,-2.773 -5.739,-3.746 -5.739,-4.85C-5.739,-5.955 -5.595,-6.928 -5.307,-7.768C-5.019,-8.608 -4.619,-9.312 -4.106,-9.881C-3.594,-10.449 -2.989,-10.873 -2.293,-11.154C-1.597,-11.433 -0.841,-11.574 -0.024,-11.574C0.729,-11.574 1.42,-11.457 2.053,-11.225C2.685,-10.993 3.226,-10.637 3.674,-10.157C4.122,-9.677 4.47,-9.08 4.718,-8.368C4.966,-7.656 5.091,-6.819 5.091,-5.859L5.091,-4.178L-3.313,-4.178C-3.218,-2.753 -2.846,-1.701 -2.197,-1.02C-1.549,-0.34 -0.744,0 0.216,0" style="fill:rgb(209,130,181);fill-rule:nonzero;"/>
        </g>
        <g transform="matrix(1.00018,0,0,1.00018,380.606,632.647)">
            <path d="M0,-12.367L0.12,-10.83C0.616,-11.326 1.201,-11.766 1.873,-12.151C2.546,-12.535 3.298,-12.727 4.131,-12.727C4.883,-12.727 5.523,-12.639 6.052,-12.463C6.58,-12.286 7.008,-12.011 7.336,-11.635C7.664,-11.258 7.904,-10.766 8.057,-10.158C8.208,-9.549 8.284,-8.813 8.284,-7.949L8.284,0.36L5.979,0.36L5.979,-8.189C5.979,-9.966 5.171,-10.854 3.555,-10.854C2.994,-10.854 2.441,-10.726 1.897,-10.47C1.354,-10.214 0.841,-9.861 0.36,-9.413L0.36,0.36L-1.944,0.36L-1.944,-12.367L0,-12.367Z" style="fill:rgb(209,130,181);fill-rule:nonzero;"/>
        </g>
    </g>
</svg>
