<?xml version="1.0" encoding="UTF-8" standalone="no"?>
<!DOCTYPE svg PUBLIC "-//W3C//DTD SVG 1.1//EN" "http://www.w3.org/Graphics/SVG/1.1/DTD/svg11.dtd">
<svg width="100%" height="100%" viewBox="0 0 662 99" version="1.1" xmlns="http://www.w3.org/2000/svg" xmlns:xlink="http://www.w3.org/1999/xlink" xml:space="preserve" xmlns:serif="http://www.serif.com/" style="fill-rule:evenodd;clip-rule:evenodd;stroke-linejoin:round;stroke-miterlimit:2;">
    <g transform="matrix(1,0,0,1,-69,-200.5)">
        <g transform="matrix(4.16667,0,0,4.16667,197.385,274.994)">
            <path d="M0,4.036C-0.149,4.036 -0.624,4.042 -0.869,4.048L-0.869,3.718C-0.462,3.694 -0.39,3.664 -0.342,3.604C-0.306,3.562 -0.306,3.46 -0.306,3.226L-0.306,0.39C-1.098,0.39 -1.182,0.408 -1.283,0.479C-1.361,0.528 -1.421,0.66 -1.463,1.056L-1.745,1.056C-1.763,0.804 -1.775,0.468 -1.775,0.312C-1.775,0.126 -1.721,-0.012 -1.415,-0.012L1.325,-0.012C1.631,-0.012 1.697,0.114 1.697,0.294C1.697,0.444 1.686,0.804 1.667,1.056L1.379,1.056C1.344,0.678 1.289,0.54 1.211,0.479C1.115,0.408 1.02,0.39 0.234,0.39L0.234,3.215C0.234,3.454 0.246,3.544 0.276,3.599C0.312,3.658 0.396,3.688 0.81,3.718L0.81,4.048C0.569,4.042 0.144,4.036 0,4.036" style="fill:rgb(167,169,172);fill-rule:nonzero;"/>
        </g>
        <g transform="matrix(4.16667,0,0,4.16667,211.236,274.969)">
            <path d="M0,4.042C-0.138,4.042 -0.545,4.048 -0.803,4.054L-0.803,3.724C-0.468,3.7 -0.348,3.682 -0.3,3.628C-0.264,3.58 -0.258,3.521 -0.258,3.244L-0.258,0.768C-0.258,0.546 -0.27,0.456 -0.3,0.414C-0.335,0.366 -0.443,0.336 -0.803,0.312L-0.803,-0.012C-0.552,-0.006 -0.155,0.006 -0.018,0.006C0.132,0.006 0.576,-0.006 0.834,-0.012L0.834,0.312C0.45,0.336 0.36,0.372 0.324,0.42C0.294,0.462 0.288,0.54 0.288,0.768L0.288,1.721L2.226,1.721L2.226,0.773C2.226,0.552 2.213,0.456 2.177,0.414C2.135,0.366 2.027,0.336 1.674,0.312L1.674,-0.012C1.926,-0.006 2.333,0.006 2.471,0.006C2.621,0.006 3.053,-0.006 3.316,-0.012L3.316,0.312C2.927,0.336 2.843,0.372 2.801,0.42C2.771,0.462 2.765,0.54 2.765,0.768L2.765,3.238C2.765,3.514 2.771,3.58 2.801,3.616C2.849,3.67 2.927,3.7 3.316,3.724L3.316,4.054C3.053,4.048 2.645,4.042 2.495,4.042C2.357,4.042 1.926,4.048 1.674,4.054L1.674,3.724C2.009,3.7 2.129,3.682 2.177,3.628C2.219,3.58 2.226,3.521 2.226,3.244L2.226,2.135L0.288,2.135L0.288,3.238C0.288,3.514 0.294,3.58 0.324,3.616C0.366,3.67 0.456,3.7 0.834,3.724L0.834,4.054C0.576,4.048 0.156,4.042 0,4.042" style="fill:rgb(167,169,172);fill-rule:nonzero;"/>
        </g>
        <g transform="matrix(4.16667,0,0,4.16667,241.432,275.669)">
            <path d="M0,3.706C-0.036,3.813 -0.222,3.88 -0.474,3.88L-3.076,3.88L-3.076,3.556C-2.776,3.538 -2.639,3.52 -2.584,3.466C-2.53,3.412 -2.53,3.31 -2.53,3.076L-2.53,0.6C-2.53,0.432 -2.536,0.288 -2.566,0.246C-2.608,0.185 -2.717,0.168 -3.076,0.143L-3.076,-0.174L-0.497,-0.174C-0.197,-0.174 -0.12,-0.054 -0.12,0.12C-0.12,0.282 -0.149,0.642 -0.168,0.815L-0.485,0.815C-0.521,0.485 -0.569,0.372 -0.636,0.324C-0.726,0.258 -0.863,0.24 -1.325,0.24L-1.984,0.24L-1.984,1.589L-1.565,1.589C-1.247,1.589 -1.14,1.571 -1.073,1.487C-1.02,1.421 -0.978,1.295 -0.965,1.127L-0.665,1.127C-0.678,1.283 -0.678,1.595 -0.678,1.769C-0.678,1.865 -0.678,2.188 -0.665,2.435L-0.947,2.435C-0.978,2.207 -1.014,2.129 -1.062,2.062C-1.127,1.973 -1.289,1.973 -1.577,1.973L-1.984,1.973L-1.984,3.196C-1.984,3.37 -1.942,3.43 -1.823,3.448C-1.667,3.466 -1.415,3.472 -1.271,3.472C-0.701,3.472 -0.516,3.412 -0.414,3.31C-0.33,3.221 -0.258,3.034 -0.191,2.807L0.108,2.807C0.103,3.148 0.066,3.526 0,3.706" style="fill:rgb(167,169,172);fill-rule:nonzero;"/>
        </g>
        <g transform="matrix(4.16667,0,0,4.16667,257.386,277.441)">
            <path d="M0,2.855C0,2.999 0.036,3.035 0.156,3.059C0.252,3.077 0.456,3.077 0.552,3.077C1.199,3.077 1.547,2.813 1.547,2.292C1.547,2.003 1.392,1.769 1.187,1.668C0.995,1.566 0.744,1.536 0.276,1.536L0,1.536L0,2.855ZM0.27,1.134C0.474,1.134 0.768,1.116 0.852,1.092C1.182,0.99 1.355,0.78 1.355,0.438C1.355,0.138 1.176,-0.059 0.905,-0.137C0.768,-0.173 0.498,-0.192 0.276,-0.192L0,-0.192L0,1.134L0.27,1.134ZM-1.091,3.13C-0.81,3.119 -0.684,3.095 -0.642,3.071C-0.563,3.035 -0.546,3.004 -0.546,2.705L-0.546,0.157C-0.546,-0.072 -0.558,-0.15 -0.588,-0.185C-0.642,-0.251 -0.731,-0.263 -1.091,-0.282L-1.091,-0.605L0.042,-0.605C0.384,-0.605 0.857,-0.582 1.05,-0.557C1.661,-0.467 1.937,-0.131 1.937,0.342C1.937,0.81 1.667,1.158 1.134,1.29C1.817,1.368 2.153,1.74 2.153,2.279C2.153,2.693 2.009,3.035 1.583,3.263C1.379,3.376 1.031,3.46 0.618,3.46C0.372,3.46 -0.03,3.449 -0.336,3.449C-0.527,3.449 -0.875,3.455 -1.091,3.46L-1.091,3.13Z" style="fill:rgb(167,169,172);fill-rule:nonzero;"/>
        </g>
        <g transform="matrix(4.16667,0,0,4.16667,283.156,275.669)">
            <path d="M0,3.706C-0.036,3.813 -0.222,3.88 -0.474,3.88L-3.076,3.88L-3.076,3.556C-2.776,3.538 -2.639,3.52 -2.584,3.466C-2.53,3.412 -2.53,3.31 -2.53,3.076L-2.53,0.6C-2.53,0.432 -2.536,0.288 -2.566,0.246C-2.608,0.185 -2.717,0.168 -3.076,0.143L-3.076,-0.174L-0.497,-0.174C-0.197,-0.174 -0.12,-0.054 -0.12,0.12C-0.12,0.282 -0.149,0.642 -0.168,0.815L-0.485,0.815C-0.521,0.485 -0.569,0.372 -0.636,0.324C-0.726,0.258 -0.863,0.24 -1.325,0.24L-1.984,0.24L-1.984,1.589L-1.565,1.589C-1.247,1.589 -1.14,1.571 -1.073,1.487C-1.02,1.421 -0.978,1.295 -0.965,1.127L-0.665,1.127C-0.678,1.283 -0.678,1.595 -0.678,1.769C-0.678,1.865 -0.678,2.188 -0.665,2.435L-0.947,2.435C-0.978,2.207 -1.014,2.129 -1.062,2.062C-1.127,1.973 -1.289,1.973 -1.577,1.973L-1.984,1.973L-1.984,3.196C-1.984,3.37 -1.942,3.43 -1.823,3.448C-1.667,3.466 -1.415,3.472 -1.271,3.472C-0.701,3.472 -0.516,3.412 -0.414,3.31C-0.33,3.221 -0.258,3.034 -0.191,2.807L0.108,2.807C0.103,3.148 0.066,3.526 0,3.706" style="fill:rgb(167,169,172);fill-rule:nonzero;"/>
        </g>
        <g transform="matrix(4.16667,0,0,4.16667,289.166,279.743)">
            <path d="M0,1.745C0.06,2.135 0.155,2.255 0.251,2.345C0.39,2.471 0.665,2.56 1.031,2.56C1.606,2.56 1.87,2.261 1.87,1.931C1.87,1.619 1.715,1.445 1.318,1.277L0.569,0.959C-0.049,0.695 -0.217,0.324 -0.217,-0.084C-0.217,-0.726 0.222,-1.241 1.247,-1.241C1.522,-1.241 1.847,-1.199 2.08,-1.092C2.23,-1.02 2.29,-0.905 2.29,-0.708C2.29,-0.552 2.272,-0.318 2.248,-0.102L1.954,-0.102C1.895,-0.492 1.841,-0.618 1.751,-0.69C1.643,-0.779 1.421,-0.816 1.127,-0.816C0.545,-0.816 0.323,-0.51 0.323,-0.186C0.323,0.096 0.443,0.288 0.947,0.491L1.637,0.767C2.225,1.001 2.435,1.355 2.435,1.799C2.435,2.566 1.847,2.986 0.977,2.986C0.623,2.986 0.251,2.914 0.041,2.812C-0.265,2.662 -0.318,2.488 -0.318,2.188C-0.318,2.045 -0.312,1.901 -0.301,1.745L0,1.745Z" style="fill:rgb(167,169,172);fill-rule:nonzero;"/>
        </g>
        <g transform="matrix(4.16667,0,0,4.16667,310.386,274.994)">
            <path d="M0,4.036C-0.15,4.036 -0.624,4.042 -0.87,4.048L-0.87,3.718C-0.462,3.694 -0.391,3.664 -0.342,3.604C-0.307,3.562 -0.307,3.46 -0.307,3.226L-0.307,0.39C-1.098,0.39 -1.182,0.408 -1.284,0.479C-1.361,0.528 -1.422,0.66 -1.464,1.056L-1.745,1.056C-1.764,0.804 -1.775,0.468 -1.775,0.312C-1.775,0.126 -1.722,-0.012 -1.416,-0.012L1.325,-0.012C1.631,-0.012 1.696,0.114 1.696,0.294C1.696,0.444 1.685,0.804 1.667,1.056L1.379,1.056C1.343,0.678 1.289,0.54 1.211,0.479C1.115,0.408 1.019,0.39 0.233,0.39L0.233,3.215C0.233,3.454 0.245,3.544 0.275,3.599C0.312,3.658 0.396,3.688 0.81,3.718L0.81,4.048C0.569,4.042 0.144,4.036 0,4.036" style="fill:rgb(167,169,172);fill-rule:nonzero;"/>
        </g>
        <g transform="matrix(4.16667,0,0,4.16667,343.78,290.512)">
            <path d="M0,-3.329C-0.066,-3.274 -0.114,-3.173 -0.216,-2.891L-1.35,0.167C-1.415,0.348 -1.523,0.413 -1.679,0.413C-1.847,0.413 -1.949,0.354 -2.015,0.174L-3.166,-2.944C-3.256,-3.196 -3.311,-3.287 -3.395,-3.352C-3.448,-3.394 -3.616,-3.412 -3.766,-3.419L-3.766,-3.742C-3.55,-3.736 -3.047,-3.73 -2.908,-3.73C-2.765,-3.73 -2.314,-3.736 -2.087,-3.742L-2.087,-3.419C-2.213,-3.412 -2.423,-3.406 -2.488,-3.394C-2.591,-3.37 -2.627,-3.316 -2.627,-3.238C-2.627,-3.184 -2.597,-3.047 -2.537,-2.873C-1.961,-1.242 -1.799,-0.828 -1.602,-0.259C-1.415,-0.792 -1.26,-1.248 -0.689,-2.849C-0.636,-3.005 -0.605,-3.148 -0.605,-3.232C-0.605,-3.293 -0.63,-3.347 -0.678,-3.364C-0.756,-3.4 -1.002,-3.406 -1.157,-3.419L-1.157,-3.742C-0.941,-3.736 -0.521,-3.73 -0.39,-3.73C-0.276,-3.73 0.222,-3.736 0.426,-3.742L0.426,-3.419C0.21,-3.412 0.065,-3.389 0,-3.329" style="fill:rgb(167,169,172);fill-rule:nonzero;"/>
        </g>
        <g transform="matrix(4.16667,0,0,4.16667,356.858,282.168)">
            <path d="M0,0.491C-0.426,-0.655 -0.546,-0.99 -0.605,-1.182C-0.689,-0.942 -0.798,-0.636 -1.212,0.491L0,0.491ZM-1.919,2.314C-2.033,2.314 -2.435,2.32 -2.633,2.326L-2.633,1.996C-2.405,1.984 -2.272,1.948 -2.213,1.9C-2.135,1.841 -2.099,1.751 -1.973,1.415L-0.852,-1.56C-0.779,-1.745 -0.678,-1.835 -0.504,-1.835C-0.348,-1.835 -0.258,-1.764 -0.187,-1.572L0.965,1.511C1.056,1.762 1.109,1.852 1.193,1.919C1.241,1.961 1.379,1.99 1.571,1.996L1.571,2.326C1.349,2.32 0.936,2.314 0.785,2.314C0.653,2.314 0.12,2.32 -0.114,2.326L-0.114,1.996C0.018,1.99 0.228,1.972 0.294,1.954C0.396,1.93 0.432,1.883 0.432,1.81C0.432,1.744 0.407,1.619 0.348,1.451L0.138,0.893L-1.331,0.893L-1.529,1.421C-1.583,1.577 -1.619,1.709 -1.619,1.804C-1.619,1.858 -1.602,1.912 -1.541,1.936C-1.463,1.967 -1.241,1.984 -1.067,1.996L-1.067,2.326C-1.277,2.32 -1.793,2.314 -1.919,2.314" style="fill:rgb(167,169,172);fill-rule:nonzero;"/>
        </g>
        <g transform="matrix(4.16667,0,0,4.16667,378.606,275.644)">
            <path d="M0,3.712C-0.042,3.819 -0.204,3.886 -0.456,3.886L-3.046,3.886L-3.046,3.562C-2.746,3.544 -2.608,3.52 -2.555,3.466C-2.501,3.412 -2.501,3.316 -2.501,3.082L-2.501,0.6C-2.501,0.378 -2.507,0.294 -2.543,0.246C-2.578,0.204 -2.675,0.168 -3.046,0.149L-3.046,-0.174C-2.837,-0.168 -2.465,-0.156 -2.255,-0.156C-2.039,-0.156 -1.637,-0.168 -1.386,-0.174L-1.386,0.149C-1.77,0.174 -1.883,0.21 -1.919,0.258C-1.949,0.3 -1.955,0.378 -1.955,0.606L-1.955,3.202C-1.955,3.376 -1.913,3.436 -1.793,3.454C-1.637,3.472 -1.386,3.478 -1.241,3.478C-0.672,3.478 -0.492,3.418 -0.396,3.316C-0.312,3.227 -0.234,3.023 -0.174,2.794L0.114,2.794C0.108,3.13 0.06,3.532 0,3.712" style="fill:rgb(167,169,172);fill-rule:nonzero;"/>
        </g>
        <g transform="matrix(4.16667,0,0,4.16667,396.181,290.312)">
            <path d="M0,-3.239C-0.024,-3.178 -0.03,-3.052 -0.03,-2.855L-0.03,-1.433C-0.03,-0.684 -0.12,-0.294 -0.354,-0.012C-0.617,0.312 -1.098,0.455 -1.655,0.455C-2.297,0.455 -2.771,0.234 -2.975,-0.102C-3.13,-0.36 -3.196,-0.642 -3.196,-1.469C-3.196,-1.997 -3.185,-2.591 -3.185,-2.915C-3.185,-3.119 -3.196,-3.197 -3.22,-3.245C-3.262,-3.316 -3.388,-3.352 -3.742,-3.371L-3.742,-3.694C-3.502,-3.688 -3.106,-3.682 -2.927,-3.682C-2.771,-3.682 -2.303,-3.688 -2.068,-3.694L-2.068,-3.371C-2.465,-3.352 -2.549,-3.316 -2.591,-3.262C-2.627,-3.22 -2.639,-3.125 -2.645,-2.945C-2.65,-2.554 -2.65,-2.046 -2.65,-1.494C-2.65,-1.074 -2.633,-0.708 -2.549,-0.486C-2.417,-0.144 -2.075,0.012 -1.547,0.012C-1.134,0.012 -0.756,-0.127 -0.617,-0.36C-0.456,-0.624 -0.42,-1.013 -0.42,-1.548C-0.42,-1.716 -0.426,-2.423 -0.443,-2.903C-0.456,-3.167 -0.462,-3.245 -0.516,-3.281C-0.582,-3.329 -0.72,-3.346 -1.001,-3.371L-1.001,-3.694C-0.779,-3.688 -0.372,-3.688 -0.228,-3.688C-0.09,-3.688 0.312,-3.694 0.516,-3.694L0.516,-3.371C0.132,-3.346 0.03,-3.299 0,-3.239" style="fill:rgb(167,169,172);fill-rule:nonzero;"/>
        </g>
        <g transform="matrix(4.16667,0,0,4.16667,414.756,275.669)">
            <path d="M0,3.706C-0.036,3.813 -0.222,3.88 -0.474,3.88L-3.076,3.88L-3.076,3.556C-2.776,3.538 -2.639,3.52 -2.584,3.466C-2.53,3.412 -2.53,3.31 -2.53,3.076L-2.53,0.6C-2.53,0.432 -2.536,0.288 -2.566,0.246C-2.608,0.185 -2.717,0.168 -3.076,0.143L-3.076,-0.174L-0.497,-0.174C-0.197,-0.174 -0.12,-0.054 -0.12,0.12C-0.12,0.282 -0.149,0.642 -0.168,0.815L-0.485,0.815C-0.521,0.485 -0.569,0.372 -0.636,0.324C-0.726,0.258 -0.863,0.24 -1.325,0.24L-1.984,0.24L-1.984,1.589L-1.565,1.589C-1.247,1.589 -1.14,1.571 -1.073,1.487C-1.02,1.421 -0.978,1.295 -0.965,1.127L-0.665,1.127C-0.678,1.283 -0.678,1.595 -0.678,1.769C-0.678,1.865 -0.678,2.188 -0.665,2.435L-0.947,2.435C-0.978,2.207 -1.014,2.129 -1.062,2.062C-1.127,1.973 -1.289,1.973 -1.577,1.973L-1.984,1.973L-1.984,3.196C-1.984,3.37 -1.942,3.43 -1.823,3.448C-1.667,3.466 -1.415,3.472 -1.271,3.472C-0.701,3.472 -0.516,3.412 -0.414,3.31C-0.33,3.221 -0.258,3.034 -0.191,2.807L0.108,2.807C0.103,3.148 0.066,3.526 0,3.706" style="fill:rgb(167,169,172);fill-rule:nonzero;"/>
        </g>
        <g transform="matrix(4.16667,0,0,4.16667,433.636,274.994)">
            <path d="M0,4.036C-0.15,4.036 -0.624,4.042 -0.87,4.048L-0.87,3.718C-0.462,3.694 -0.391,3.664 -0.342,3.604C-0.307,3.562 -0.307,3.46 -0.307,3.226L-0.307,0.39C-1.098,0.39 -1.182,0.408 -1.284,0.479C-1.361,0.528 -1.422,0.66 -1.464,1.056L-1.745,1.056C-1.764,0.804 -1.775,0.468 -1.775,0.312C-1.775,0.126 -1.722,-0.012 -1.416,-0.012L1.325,-0.012C1.631,-0.012 1.696,0.114 1.696,0.294C1.696,0.444 1.685,0.804 1.667,1.056L1.379,1.056C1.343,0.678 1.289,0.54 1.211,0.479C1.115,0.408 1.019,0.39 0.233,0.39L0.233,3.215C0.233,3.454 0.245,3.544 0.275,3.599C0.312,3.658 0.396,3.688 0.81,3.718L0.81,4.048C0.569,4.042 0.144,4.036 0,4.036" style="fill:rgb(167,169,172);fill-rule:nonzero;"/>
        </g>
        <g transform="matrix(4.16667,0,0,4.16667,452.406,282.168)">
            <path d="M0,0.491C-0.426,-0.655 -0.545,-0.99 -0.605,-1.182C-0.689,-0.942 -0.797,-0.636 -1.211,0.491L0,0.491ZM-1.919,2.314C-2.032,2.314 -2.435,2.32 -2.632,2.326L-2.632,1.996C-2.404,1.984 -2.272,1.948 -2.213,1.9C-2.135,1.841 -2.099,1.751 -1.973,1.415L-0.852,-1.56C-0.779,-1.745 -0.678,-1.835 -0.503,-1.835C-0.348,-1.835 -0.258,-1.764 -0.186,-1.572L0.966,1.511C1.056,1.762 1.11,1.852 1.194,1.919C1.242,1.961 1.38,1.99 1.571,1.996L1.571,2.326C1.35,2.32 0.937,2.314 0.786,2.314C0.654,2.314 0.12,2.32 -0.113,2.326L-0.113,1.996C0.019,1.99 0.229,1.972 0.294,1.954C0.396,1.93 0.433,1.883 0.433,1.81C0.433,1.744 0.408,1.619 0.348,1.451L0.139,0.893L-1.331,0.893L-1.529,1.421C-1.583,1.577 -1.619,1.709 -1.619,1.804C-1.619,1.858 -1.601,1.912 -1.541,1.936C-1.463,1.967 -1.241,1.984 -1.067,1.996L-1.067,2.326C-1.277,2.32 -1.793,2.314 -1.919,2.314" style="fill:rgb(167,169,172);fill-rule:nonzero;"/>
        </g>
        <g transform="matrix(4.16667,0,0,4.16667,466.009,277.441)">
            <path d="M0,2.855C0,2.999 0.036,3.035 0.156,3.059C0.252,3.077 0.456,3.077 0.552,3.077C1.199,3.077 1.548,2.813 1.548,2.292C1.548,2.003 1.392,1.769 1.187,1.668C0.996,1.566 0.744,1.536 0.276,1.536L0,1.536L0,2.855ZM0.271,1.134C0.474,1.134 0.768,1.116 0.852,1.092C1.182,0.99 1.355,0.78 1.355,0.438C1.355,0.138 1.176,-0.059 0.906,-0.137C0.768,-0.173 0.498,-0.192 0.276,-0.192L0,-0.192L0,1.134L0.271,1.134ZM-1.091,3.13C-0.81,3.119 -0.684,3.095 -0.642,3.071C-0.563,3.035 -0.545,3.004 -0.545,2.705L-0.545,0.157C-0.545,-0.072 -0.558,-0.15 -0.587,-0.185C-0.642,-0.251 -0.731,-0.263 -1.091,-0.282L-1.091,-0.605L0.042,-0.605C0.384,-0.605 0.857,-0.582 1.05,-0.557C1.661,-0.467 1.937,-0.131 1.937,0.342C1.937,0.81 1.667,1.158 1.134,1.29C1.817,1.368 2.153,1.74 2.153,2.279C2.153,2.693 2.009,3.035 1.584,3.263C1.38,3.376 1.032,3.46 0.618,3.46C0.372,3.46 -0.029,3.449 -0.336,3.449C-0.527,3.449 -0.875,3.455 -1.091,3.46L-1.091,3.13Z" style="fill:rgb(167,169,172);fill-rule:nonzero;"/>
        </g>
        <g transform="matrix(4.16667,0,0,4.16667,491.656,275.644)">
            <path d="M0,3.712C-0.042,3.819 -0.204,3.886 -0.455,3.886L-3.046,3.886L-3.046,3.562C-2.746,3.544 -2.608,3.52 -2.555,3.466C-2.5,3.412 -2.5,3.316 -2.5,3.082L-2.5,0.6C-2.5,0.378 -2.507,0.294 -2.542,0.246C-2.578,0.204 -2.675,0.168 -3.046,0.149L-3.046,-0.174C-2.836,-0.168 -2.465,-0.156 -2.255,-0.156C-2.039,-0.156 -1.637,-0.168 -1.385,-0.174L-1.385,0.149C-1.769,0.174 -1.883,0.21 -1.919,0.258C-1.948,0.3 -1.955,0.378 -1.955,0.606L-1.955,3.202C-1.955,3.376 -1.913,3.436 -1.793,3.454C-1.637,3.472 -1.385,3.478 -1.241,3.478C-0.672,3.478 -0.491,3.418 -0.396,3.316C-0.312,3.227 -0.233,3.023 -0.174,2.794L0.114,2.794C0.108,3.13 0.061,3.532 0,3.712" style="fill:rgb(167,169,172);fill-rule:nonzero;"/>
        </g>
        <g transform="matrix(4.16667,0,0,4.16667,508.383,275.669)">
            <path d="M0,3.706C-0.036,3.813 -0.222,3.88 -0.474,3.88L-3.076,3.88L-3.076,3.556C-2.776,3.538 -2.639,3.52 -2.585,3.466C-2.53,3.412 -2.53,3.31 -2.53,3.076L-2.53,0.6C-2.53,0.432 -2.537,0.288 -2.566,0.246C-2.608,0.185 -2.717,0.168 -3.076,0.143L-3.076,-0.174L-0.498,-0.174C-0.198,-0.174 -0.12,-0.054 -0.12,0.12C-0.12,0.282 -0.15,0.642 -0.168,0.815L-0.485,0.815C-0.521,0.485 -0.569,0.372 -0.636,0.324C-0.726,0.258 -0.863,0.24 -1.325,0.24L-1.985,0.24L-1.985,1.589L-1.565,1.589C-1.247,1.589 -1.14,1.571 -1.073,1.487C-1.02,1.421 -0.978,1.295 -0.966,1.127L-0.666,1.127C-0.678,1.283 -0.678,1.595 -0.678,1.769C-0.678,1.865 -0.678,2.188 -0.666,2.435L-0.947,2.435C-0.978,2.207 -1.014,2.129 -1.062,2.062C-1.128,1.973 -1.289,1.973 -1.577,1.973L-1.985,1.973L-1.985,3.196C-1.985,3.37 -1.943,3.43 -1.823,3.448C-1.667,3.466 -1.415,3.472 -1.271,3.472C-0.702,3.472 -0.516,3.412 -0.414,3.31C-0.33,3.221 -0.258,3.034 -0.192,2.807L0.107,2.807C0.102,3.148 0.065,3.526 0,3.706" style="fill:rgb(167,169,172);fill-rule:nonzero;"/>
        </g>
        <g transform="matrix(4.16667,0,0,4.16667,532.48,275.644)">
            <path d="M0,3.712C-0.042,3.819 -0.204,3.886 -0.455,3.886L-3.046,3.886L-3.046,3.562C-2.746,3.544 -2.608,3.52 -2.555,3.466C-2.5,3.412 -2.5,3.316 -2.5,3.082L-2.5,0.6C-2.5,0.378 -2.507,0.294 -2.542,0.246C-2.578,0.204 -2.674,0.168 -3.046,0.149L-3.046,-0.174C-2.836,-0.168 -2.465,-0.156 -2.255,-0.156C-2.039,-0.156 -1.637,-0.168 -1.385,-0.174L-1.385,0.149C-1.769,0.174 -1.883,0.21 -1.919,0.258C-1.948,0.3 -1.955,0.378 -1.955,0.606L-1.955,3.202C-1.955,3.376 -1.913,3.436 -1.793,3.454C-1.637,3.472 -1.385,3.478 -1.241,3.478C-0.672,3.478 -0.491,3.418 -0.396,3.316C-0.312,3.227 -0.233,3.023 -0.174,2.794L0.114,2.794C0.108,3.13 0.061,3.532 0,3.712" style="fill:rgb(167,169,172);fill-rule:nonzero;"/>
        </g>
        <g transform="matrix(4.16667,0,0,4.16667,539.763,274.969)">
            <path d="M0,4.042C-0.138,4.042 -0.552,4.048 -0.81,4.054L-0.81,3.724C-0.474,3.7 -0.354,3.676 -0.306,3.628C-0.271,3.586 -0.264,3.521 -0.264,3.244L-0.264,0.768C-0.264,0.546 -0.276,0.456 -0.306,0.414C-0.342,0.366 -0.45,0.336 -0.81,0.312L-0.81,-0.012C-0.6,-0.006 -0.229,0.006 -0.019,0.006C0.197,0.006 0.575,-0.006 0.827,-0.012L0.827,0.312C0.443,0.336 0.354,0.372 0.317,0.42C0.288,0.462 0.281,0.54 0.281,0.768L0.281,3.238C0.281,3.514 0.288,3.574 0.317,3.61C0.365,3.67 0.468,3.7 0.827,3.724L0.827,4.054C0.569,4.048 0.155,4.042 0,4.042" style="fill:rgb(167,169,172);fill-rule:nonzero;"/>
        </g>
        <g transform="matrix(4.16667,0,0,4.16667,549.961,275.169)">
            <path d="M0,3.994C-0.126,3.994 -0.48,4 -0.786,4.006L-0.786,3.682C-0.408,3.664 -0.288,3.622 -0.252,3.562C-0.216,3.502 -0.223,3.37 -0.21,3.058C-0.204,2.86 -0.192,1.271 -0.192,0.888C-0.192,0.599 -0.216,0.462 -0.24,0.42C-0.276,0.36 -0.312,0.318 -0.42,0.3C-0.51,0.282 -0.672,0.264 -0.792,0.264L-0.792,-0.06C-0.66,-0.054 -0.187,-0.048 -0.09,-0.048C0.012,-0.048 0.18,-0.048 0.39,-0.06C1.967,2.273 2.255,2.723 2.488,3.112C2.464,2.387 2.458,1.115 2.452,0.888C2.44,0.557 2.435,0.444 2.398,0.378C2.362,0.324 2.255,0.282 1.889,0.264L1.889,-0.06C2.206,-0.054 2.542,-0.048 2.674,-0.048C2.842,-0.048 3.1,-0.054 3.418,-0.06L3.418,0.264C3.07,0.288 2.998,0.312 2.932,0.366C2.884,0.42 2.872,0.51 2.872,0.888C2.866,1.403 2.866,2.081 2.866,2.795C2.866,3.058 2.872,3.55 2.872,3.784C2.872,3.958 2.794,4.054 2.608,4.054C2.477,4.054 2.41,3.982 2.345,3.88C0.665,1.325 0.419,0.966 0.191,0.599C0.197,1.422 0.222,2.879 0.222,3.064C0.222,3.431 0.239,3.52 0.281,3.574C0.336,3.634 0.432,3.658 0.791,3.682L0.791,4.006C0.468,4 0.174,3.994 0,3.994" style="fill:rgb(167,169,172);fill-rule:nonzero;"/>
        </g>
        <g transform="matrix(4.16667,0,0,4.16667,580.006,275.669)">
            <path d="M0,3.706C-0.036,3.813 -0.222,3.88 -0.474,3.88L-3.076,3.88L-3.076,3.556C-2.776,3.538 -2.639,3.52 -2.585,3.466C-2.53,3.412 -2.53,3.31 -2.53,3.076L-2.53,0.6C-2.53,0.432 -2.537,0.288 -2.566,0.246C-2.608,0.185 -2.717,0.168 -3.076,0.143L-3.076,-0.174L-0.498,-0.174C-0.198,-0.174 -0.12,-0.054 -0.12,0.12C-0.12,0.282 -0.15,0.642 -0.168,0.815L-0.485,0.815C-0.521,0.485 -0.569,0.372 -0.636,0.324C-0.726,0.258 -0.863,0.24 -1.325,0.24L-1.985,0.24L-1.985,1.589L-1.565,1.589C-1.247,1.589 -1.14,1.571 -1.073,1.487C-1.02,1.421 -0.978,1.295 -0.966,1.127L-0.666,1.127C-0.678,1.283 -0.678,1.595 -0.678,1.769C-0.678,1.865 -0.678,2.188 -0.666,2.435L-0.947,2.435C-0.978,2.207 -1.014,2.129 -1.062,2.062C-1.128,1.973 -1.289,1.973 -1.577,1.973L-1.985,1.973L-1.985,3.196C-1.985,3.37 -1.943,3.43 -1.823,3.448C-1.667,3.466 -1.415,3.472 -1.271,3.472C-0.702,3.472 -0.516,3.412 -0.414,3.31C-0.33,3.221 -0.258,3.034 -0.192,2.807L0.107,2.807C0.102,3.148 0.065,3.526 0,3.706" style="fill:rgb(167,169,172);fill-rule:nonzero;"/>
        </g>
        <g transform="matrix(4.16667,0,0,4.16667,587.237,275.169)">
            <path d="M0,3.994C-0.126,3.994 -0.48,4 -0.786,4.006L-0.786,3.682C-0.408,3.664 -0.288,3.622 -0.252,3.562C-0.216,3.502 -0.223,3.37 -0.21,3.058C-0.204,2.86 -0.192,1.271 -0.192,0.888C-0.192,0.599 -0.216,0.462 -0.24,0.42C-0.276,0.36 -0.312,0.318 -0.42,0.3C-0.51,0.282 -0.672,0.264 -0.792,0.264L-0.792,-0.06C-0.66,-0.054 -0.187,-0.048 -0.09,-0.048C0.012,-0.048 0.18,-0.048 0.39,-0.06C1.967,2.273 2.255,2.723 2.488,3.112C2.464,2.387 2.458,1.115 2.452,0.888C2.44,0.557 2.435,0.444 2.398,0.378C2.362,0.324 2.255,0.282 1.889,0.264L1.889,-0.06C2.206,-0.054 2.542,-0.048 2.674,-0.048C2.842,-0.048 3.1,-0.054 3.418,-0.06L3.418,0.264C3.07,0.288 2.998,0.312 2.932,0.366C2.884,0.42 2.872,0.51 2.872,0.888C2.866,1.403 2.866,2.081 2.866,2.795C2.866,3.058 2.872,3.55 2.872,3.784C2.872,3.958 2.794,4.054 2.608,4.054C2.477,4.054 2.41,3.982 2.345,3.88C0.665,1.325 0.419,0.966 0.191,0.599C0.197,1.422 0.222,2.879 0.222,3.064C0.222,3.431 0.239,3.52 0.281,3.574C0.336,3.634 0.432,3.658 0.791,3.682L0.791,4.006C0.468,4 0.174,3.994 0,3.994" style="fill:rgb(167,169,172);fill-rule:nonzero;"/>
        </g>
        <g transform="matrix(4.16667,0,0,4.16667,606.414,279.743)">
            <path d="M0,1.745C0.06,2.135 0.155,2.255 0.252,2.345C0.39,2.471 0.665,2.56 1.031,2.56C1.606,2.56 1.871,2.261 1.871,1.931C1.871,1.619 1.715,1.445 1.319,1.277L0.569,0.959C-0.048,0.695 -0.216,0.324 -0.216,-0.084C-0.216,-0.726 0.222,-1.241 1.247,-1.241C1.522,-1.241 1.847,-1.199 2.081,-1.092C2.23,-1.02 2.29,-0.905 2.29,-0.708C2.29,-0.552 2.272,-0.318 2.248,-0.102L1.955,-0.102C1.895,-0.492 1.841,-0.618 1.751,-0.69C1.643,-0.779 1.421,-0.816 1.127,-0.816C0.546,-0.816 0.323,-0.51 0.323,-0.186C0.323,0.096 0.443,0.288 0.947,0.491L1.637,0.767C2.225,1.001 2.435,1.355 2.435,1.799C2.435,2.566 1.847,2.986 0.978,2.986C0.623,2.986 0.252,2.914 0.042,2.812C-0.264,2.662 -0.318,2.488 -0.318,2.188C-0.318,2.045 -0.312,1.901 -0.3,1.745L0,1.745Z" style="fill:rgb(167,169,172);fill-rule:nonzero;"/>
        </g>
        <g transform="matrix(4.16667,0,0,4.16667,636.134,290.386)">
            <path d="M0,-3.364C-0.882,-3.364 -1.35,-2.728 -1.35,-1.745C-1.35,-0.486 -0.821,-0.006 -0.006,-0.006C0.833,-0.006 1.313,-0.605 1.313,-1.703C1.313,-2.873 0.857,-3.364 0,-3.364M-0.019,0.432C-1.308,0.432 -1.925,-0.426 -1.925,-1.661C-1.925,-2.998 -1.14,-3.796 0.023,-3.796C1.337,-3.796 1.889,-2.998 1.889,-1.745C1.889,-0.263 1.049,0.432 -0.019,0.432" style="fill:rgb(167,169,172);fill-rule:nonzero;"/>
        </g>
        <g transform="matrix(4.16667,0,0,4.16667,651.112,275.169)">
            <path d="M0,3.994C-0.126,3.994 -0.48,4 -0.786,4.006L-0.786,3.682C-0.408,3.664 -0.288,3.622 -0.252,3.562C-0.216,3.502 -0.223,3.37 -0.21,3.058C-0.204,2.86 -0.192,1.271 -0.192,0.888C-0.192,0.599 -0.216,0.462 -0.24,0.42C-0.276,0.36 -0.312,0.318 -0.42,0.3C-0.51,0.282 -0.672,0.264 -0.792,0.264L-0.792,-0.06C-0.66,-0.054 -0.187,-0.048 -0.09,-0.048C0.012,-0.048 0.18,-0.048 0.39,-0.06C1.967,2.273 2.255,2.723 2.488,3.112C2.464,2.387 2.458,1.115 2.452,0.888C2.44,0.557 2.435,0.444 2.398,0.378C2.362,0.324 2.255,0.282 1.889,0.264L1.889,-0.06C2.206,-0.054 2.542,-0.048 2.674,-0.048C2.842,-0.048 3.1,-0.054 3.418,-0.06L3.418,0.264C3.07,0.288 2.998,0.312 2.932,0.366C2.884,0.42 2.872,0.51 2.872,0.888C2.866,1.403 2.866,2.081 2.866,2.795C2.866,3.058 2.872,3.55 2.872,3.784C2.872,3.958 2.794,4.054 2.608,4.054C2.477,4.054 2.41,3.982 2.345,3.88C0.665,1.325 0.419,0.966 0.191,0.599C0.197,1.422 0.222,2.879 0.222,3.064C0.222,3.431 0.239,3.52 0.281,3.574C0.336,3.634 0.432,3.658 0.791,3.682L0.791,4.006C0.468,4 0.174,3.994 0,3.994" style="fill:rgb(167,169,172);fill-rule:nonzero;"/>
        </g>
        <g transform="matrix(4.16667,0,0,4.16667,681.028,275.644)">
            <path d="M0,3.712C-0.042,3.819 -0.204,3.886 -0.455,3.886L-3.046,3.886L-3.046,3.562C-2.746,3.544 -2.608,3.52 -2.555,3.466C-2.5,3.412 -2.5,3.316 -2.5,3.082L-2.5,0.6C-2.5,0.378 -2.507,0.294 -2.542,0.246C-2.578,0.204 -2.675,0.168 -3.046,0.149L-3.046,-0.174C-2.836,-0.168 -2.465,-0.156 -2.255,-0.156C-2.039,-0.156 -1.637,-0.168 -1.385,-0.174L-1.385,0.149C-1.769,0.174 -1.883,0.21 -1.919,0.258C-1.948,0.3 -1.955,0.378 -1.955,0.606L-1.955,3.202C-1.955,3.376 -1.913,3.436 -1.793,3.454C-1.637,3.472 -1.385,3.478 -1.241,3.478C-0.672,3.478 -0.491,3.418 -0.396,3.316C-0.312,3.227 -0.233,3.023 -0.174,2.794L0.114,2.794C0.108,3.13 0.061,3.532 0,3.712" style="fill:rgb(167,169,172);fill-rule:nonzero;"/>
        </g>
        <g transform="matrix(4.16667,0,0,4.16667,688.311,274.969)">
            <path d="M0,4.042C-0.138,4.042 -0.552,4.048 -0.81,4.054L-0.81,3.724C-0.474,3.7 -0.354,3.676 -0.306,3.628C-0.271,3.586 -0.264,3.521 -0.264,3.244L-0.264,0.768C-0.264,0.546 -0.276,0.456 -0.306,0.414C-0.342,0.366 -0.45,0.336 -0.81,0.312L-0.81,-0.012C-0.6,-0.006 -0.229,0.006 -0.019,0.006C0.197,0.006 0.575,-0.006 0.827,-0.012L0.827,0.312C0.443,0.336 0.354,0.372 0.317,0.42C0.288,0.462 0.281,0.54 0.281,0.768L0.281,3.238C0.281,3.514 0.288,3.574 0.317,3.61C0.365,3.67 0.468,3.7 0.827,3.724L0.827,4.054C0.569,4.048 0.155,4.042 0,4.042" style="fill:rgb(167,169,172);fill-rule:nonzero;"/>
        </g>
        <g transform="matrix(4.16667,0,0,4.16667,698.512,275.169)">
            <path d="M0,3.994C-0.126,3.994 -0.48,4 -0.786,4.006L-0.786,3.682C-0.408,3.664 -0.288,3.622 -0.252,3.562C-0.216,3.502 -0.223,3.37 -0.21,3.058C-0.204,2.86 -0.192,1.271 -0.192,0.888C-0.192,0.599 -0.216,0.462 -0.24,0.42C-0.276,0.36 -0.312,0.318 -0.42,0.3C-0.51,0.282 -0.672,0.264 -0.792,0.264L-0.792,-0.06C-0.66,-0.054 -0.187,-0.048 -0.09,-0.048C0.012,-0.048 0.18,-0.048 0.39,-0.06C1.967,2.273 2.255,2.723 2.488,3.112C2.464,2.387 2.458,1.115 2.452,0.888C2.44,0.557 2.435,0.444 2.398,0.378C2.362,0.324 2.255,0.282 1.889,0.264L1.889,-0.06C2.206,-0.054 2.542,-0.048 2.674,-0.048C2.842,-0.048 3.1,-0.054 3.418,-0.06L3.418,0.264C3.07,0.288 2.998,0.312 2.932,0.366C2.884,0.42 2.872,0.51 2.872,0.888C2.866,1.403 2.866,2.081 2.866,2.795C2.866,3.058 2.872,3.55 2.872,3.784C2.872,3.958 2.794,4.054 2.608,4.054C2.477,4.054 2.41,3.982 2.345,3.88C0.665,1.325 0.419,0.966 0.191,0.599C0.197,1.422 0.222,2.879 0.222,3.064C0.222,3.431 0.239,3.52 0.281,3.574C0.336,3.634 0.432,3.658 0.791,3.682L0.791,4.006C0.468,4 0.174,3.994 0,3.994" style="fill:rgb(167,169,172);fill-rule:nonzero;"/>
        </g>
        <g transform="matrix(4.16667,0,0,4.16667,728.553,275.669)">
            <path d="M0,3.706C-0.036,3.813 -0.222,3.88 -0.474,3.88L-3.076,3.88L-3.076,3.556C-2.776,3.538 -2.639,3.52 -2.585,3.466C-2.53,3.412 -2.53,3.31 -2.53,3.076L-2.53,0.6C-2.53,0.432 -2.537,0.288 -2.566,0.246C-2.608,0.185 -2.717,0.168 -3.076,0.143L-3.076,-0.174L-0.498,-0.174C-0.198,-0.174 -0.12,-0.054 -0.12,0.12C-0.12,0.282 -0.15,0.642 -0.168,0.815L-0.485,0.815C-0.521,0.485 -0.569,0.372 -0.636,0.324C-0.726,0.258 -0.863,0.24 -1.325,0.24L-1.985,0.24L-1.985,1.589L-1.565,1.589C-1.247,1.589 -1.14,1.571 -1.073,1.487C-1.02,1.421 -0.978,1.295 -0.966,1.127L-0.666,1.127C-0.678,1.283 -0.678,1.595 -0.678,1.769C-0.678,1.865 -0.678,2.188 -0.666,2.435L-0.947,2.435C-0.978,2.207 -1.014,2.129 -1.062,2.062C-1.128,1.973 -1.289,1.973 -1.577,1.973L-1.985,1.973L-1.985,3.196C-1.985,3.37 -1.943,3.43 -1.823,3.448C-1.667,3.466 -1.415,3.472 -1.271,3.472C-0.702,3.472 -0.516,3.412 -0.414,3.31C-0.33,3.221 -0.258,3.034 -0.192,2.807L0.107,2.807C0.102,3.148 0.065,3.526 0,3.706" style="fill:rgb(167,169,172);fill-rule:nonzero;"/>
        </g>
        <g transform="matrix(4.16667,0,0,4.16667,203.855,222.942)">
            <path d="M0,8.073C-0.3,8.073 -1.247,8.085 -1.738,8.096L-1.738,7.437C-0.923,7.389 -0.779,7.329 -0.684,7.209C-0.611,7.126 -0.611,6.922 -0.611,6.454L-0.611,0.781C-2.194,0.781 -2.362,0.817 -2.566,0.961C-2.722,1.056 -2.842,1.32 -2.926,2.112L-3.489,2.112C-3.525,1.608 -3.55,0.936 -3.55,0.625C-3.55,0.253 -3.441,-0.023 -2.83,-0.023L2.651,-0.023C3.263,-0.023 3.395,0.229 3.395,0.589C3.395,0.888 3.37,1.608 3.335,2.112L2.759,2.112C2.687,1.356 2.579,1.081 2.423,0.961C2.231,0.817 2.039,0.781 0.468,0.781L0.468,6.429C0.468,6.909 0.492,7.09 0.552,7.197C0.624,7.317 0.792,7.377 1.619,7.437L1.619,8.096C1.14,8.085 0.288,8.073 0,8.073" style="fill:rgb(138,115,180);fill-rule:nonzero;"/>
        </g>
        <g transform="matrix(4.16667,0,0,4.16667,237.652,237.29)">
            <path d="M0,0.983C-0.852,-1.308 -1.091,-1.979 -1.211,-2.363C-1.379,-1.883 -1.595,-1.272 -2.422,0.983L0,0.983ZM-3.838,4.629C-4.065,4.629 -4.869,4.641 -5.265,4.653L-5.265,3.994C-4.809,3.969 -4.545,3.898 -4.425,3.801C-4.27,3.682 -4.197,3.502 -3.945,2.831L-1.703,-3.119C-1.559,-3.491 -1.354,-3.67 -1.007,-3.67C-0.695,-3.67 -0.516,-3.527 -0.371,-3.143L1.932,3.022C2.111,3.526 2.219,3.706 2.387,3.837C2.483,3.921 2.759,3.982 3.143,3.994L3.143,4.653C2.699,4.641 1.871,4.629 1.571,4.629C1.308,4.629 0.24,4.641 -0.228,4.653L-0.228,3.994C0.036,3.982 0.456,3.946 0.588,3.91C0.792,3.862 0.864,3.765 0.864,3.622C0.864,3.49 0.816,3.238 0.696,2.902L0.276,1.787L-2.662,1.787L-3.058,2.842C-3.166,3.154 -3.238,3.418 -3.238,3.61C-3.238,3.717 -3.202,3.826 -3.082,3.874C-2.926,3.933 -2.482,3.969 -2.135,3.994L-2.135,4.653C-2.555,4.641 -3.586,4.629 -3.838,4.629" style="fill:rgb(138,115,180);fill-rule:nonzero;"/>
        </g>
        <g transform="matrix(4.16667,0,0,4.16667,261.11,227.844)">
            <path d="M0,5.709C0,5.997 0.072,6.068 0.312,6.116C0.504,6.152 0.911,6.152 1.104,6.152C2.398,6.152 3.095,5.625 3.095,4.581C3.095,4.006 2.782,3.538 2.375,3.334C1.991,3.13 1.487,3.07 0.552,3.07L0,3.07L0,5.709ZM0.54,2.267C0.947,2.267 1.535,2.23 1.703,2.183C2.362,1.979 2.711,1.56 2.711,0.876C2.711,0.275 2.351,-0.12 1.811,-0.275C1.535,-0.348 0.995,-0.384 0.552,-0.384L0,-0.384L0,2.267L0.54,2.267ZM-2.183,6.261C-1.619,6.236 -1.367,6.188 -1.283,6.141C-1.127,6.068 -1.092,6.009 -1.092,5.409L-1.092,0.312C-1.092,-0.144 -1.115,-0.3 -1.176,-0.372C-1.283,-0.504 -1.463,-0.527 -2.183,-0.563L-2.183,-1.211L0.084,-1.211C0.768,-1.211 1.715,-1.163 2.099,-1.115C3.322,-0.936 3.874,-0.264 3.874,0.684C3.874,1.619 3.334,2.314 2.267,2.578C3.634,2.734 4.306,3.479 4.306,4.558C4.306,5.385 4.018,6.068 3.166,6.524C2.759,6.752 2.063,6.92 1.235,6.92C0.743,6.92 -0.06,6.896 -0.672,6.896C-1.056,6.896 -1.751,6.908 -2.183,6.92L-2.183,6.261Z" style="fill:rgb(138,115,180);fill-rule:nonzero;"/>
        </g>
        <g transform="matrix(4.16667,0,0,4.16667,308.652,224.251)">
            <path d="M0,7.423C-0.084,7.639 -0.408,7.771 -0.912,7.771L-6.093,7.771L-6.093,7.123C-5.493,7.087 -5.218,7.039 -5.109,6.931C-5.002,6.823 -5.002,6.631 -5.002,6.163L-5.002,1.198C-5.002,0.754 -5.014,0.587 -5.086,0.49C-5.157,0.406 -5.35,0.335 -6.093,0.299L-6.093,-0.348C-5.673,-0.337 -4.93,-0.313 -4.51,-0.313C-4.078,-0.313 -3.274,-0.337 -2.771,-0.348L-2.771,0.299C-3.538,0.347 -3.767,0.419 -3.838,0.515C-3.898,0.599 -3.91,0.754 -3.91,1.21L-3.91,6.403C-3.91,6.751 -3.826,6.871 -3.586,6.907C-3.274,6.944 -2.771,6.955 -2.483,6.955C-1.344,6.955 -0.983,6.835 -0.792,6.631C-0.624,6.451 -0.468,6.044 -0.348,5.588L0.228,5.588C0.216,6.26 0.119,7.063 0,7.423" style="fill:rgb(138,115,180);fill-rule:nonzero;"/>
        </g>
        <g transform="matrix(4.16667,0,0,4.16667,338.352,224.296)">
            <path d="M0,7.412C-0.072,7.628 -0.444,7.76 -0.948,7.76L-6.153,7.76L-6.153,7.112C-5.554,7.076 -5.277,7.04 -5.17,6.933C-5.062,6.824 -5.062,6.62 -5.062,6.152L-5.062,1.199C-5.062,0.863 -5.073,0.576 -5.134,0.492C-5.218,0.372 -5.434,0.336 -6.153,0.288L-6.153,-0.348L-0.996,-0.348C-0.396,-0.348 -0.24,-0.108 -0.24,0.24C-0.24,0.563 -0.3,1.283 -0.336,1.631L-0.972,1.631C-1.044,0.972 -1.14,0.743 -1.271,0.647C-1.451,0.516 -1.728,0.479 -2.651,0.479L-3.971,0.479L-3.971,3.179L-3.131,3.179C-2.495,3.179 -2.279,3.142 -2.147,2.975C-2.039,2.843 -1.955,2.591 -1.932,2.255L-1.332,2.255C-1.355,2.566 -1.355,3.19 -1.355,3.538C-1.355,3.73 -1.355,4.378 -1.332,4.869L-1.896,4.869C-1.955,4.414 -2.027,4.258 -2.123,4.126C-2.255,3.946 -2.579,3.946 -3.154,3.946L-3.971,3.946L-3.971,6.392C-3.971,6.74 -3.887,6.86 -3.646,6.896C-3.335,6.933 -2.831,6.944 -2.543,6.944C-1.403,6.944 -1.032,6.824 -0.828,6.62C-0.66,6.44 -0.517,6.068 -0.384,5.613L0.216,5.613C0.203,6.297 0.132,7.052 0,7.412" style="fill:rgb(138,115,180);fill-rule:nonzero;"/>
        </g>
        <g transform="matrix(4.16667,0,0,4.16667,368.1,224.251)">
            <path d="M0,7.423C-0.084,7.639 -0.408,7.771 -0.912,7.771L-6.093,7.771L-6.093,7.123C-5.493,7.087 -5.218,7.039 -5.109,6.931C-5.002,6.823 -5.002,6.631 -5.002,6.163L-5.002,1.198C-5.002,0.754 -5.014,0.587 -5.086,0.49C-5.157,0.406 -5.35,0.335 -6.093,0.299L-6.093,-0.348C-5.673,-0.337 -4.93,-0.313 -4.51,-0.313C-4.078,-0.313 -3.274,-0.337 -2.771,-0.348L-2.771,0.299C-3.538,0.347 -3.767,0.419 -3.838,0.515C-3.898,0.599 -3.91,0.754 -3.91,1.21L-3.91,6.403C-3.91,6.751 -3.826,6.871 -3.586,6.907C-3.274,6.944 -2.771,6.955 -2.483,6.955C-1.344,6.955 -0.983,6.835 -0.792,6.631C-0.624,6.451 -0.468,6.044 -0.348,5.588L0.228,5.588C0.216,6.26 0.119,7.063 0,7.423" style="fill:rgb(138,115,180);fill-rule:nonzero;"/>
        </g>
        <g transform="matrix(4.16667,0,0,4.16667,378.911,222.896)">
            <path d="M0,8.084C-0.276,8.084 -1.104,8.096 -1.619,8.107L-1.619,7.448C-0.947,7.4 -0.708,7.353 -0.612,7.256C-0.54,7.172 -0.528,7.04 -0.528,6.488L-0.528,1.535C-0.528,1.092 -0.552,0.912 -0.612,0.828C-0.684,0.731 -0.899,0.672 -1.619,0.624L-1.619,-0.023C-1.199,-0.012 -0.456,0.012 -0.036,0.012C0.396,0.012 1.151,-0.012 1.655,-0.023L1.655,0.624C0.888,0.672 0.707,0.744 0.636,0.84C0.575,0.924 0.563,1.079 0.563,1.535L0.563,6.477C0.563,7.028 0.575,7.148 0.636,7.22C0.731,7.34 0.936,7.4 1.655,7.448L1.655,8.107C1.139,8.096 0.312,8.084 0,8.084" style="fill:rgb(138,115,180);fill-rule:nonzero;"/>
        </g>
        <g transform="matrix(4.16667,0,0,4.16667,395.562,223.3)">
            <path d="M0,7.987C-0.252,7.987 -0.96,7.999 -1.571,8.01L-1.571,7.363C-0.816,7.327 -0.576,7.243 -0.504,7.123C-0.433,7.004 -0.444,6.739 -0.42,6.116C-0.408,5.72 -0.384,2.542 -0.384,1.774C-0.384,1.199 -0.433,0.923 -0.48,0.839C-0.552,0.718 -0.624,0.634 -0.84,0.598C-1.02,0.563 -1.344,0.527 -1.584,0.527L-1.584,-0.12C-1.319,-0.109 -0.372,-0.097 -0.181,-0.097C0.023,-0.097 0.359,-0.097 0.779,-0.12C3.934,4.545 4.509,5.444 4.977,6.223C4.929,4.772 4.917,2.23 4.905,1.774C4.881,1.115 4.869,0.886 4.797,0.755C4.725,0.647 4.509,0.563 3.777,0.527L3.777,-0.12C4.413,-0.109 5.085,-0.097 5.349,-0.097C5.685,-0.097 6.2,-0.109 6.836,-0.12L6.836,0.527C6.141,0.575 5.996,0.623 5.864,0.731C5.769,0.839 5.744,1.018 5.744,1.774C5.732,2.805 5.732,4.161 5.732,5.588C5.732,6.116 5.744,7.099 5.744,7.567C5.744,7.915 5.589,8.107 5.217,8.107C4.953,8.107 4.821,7.963 4.688,7.758C1.331,2.65 0.839,1.93 0.384,1.199C0.396,2.841 0.443,5.756 0.443,6.128C0.443,6.859 0.479,7.04 0.563,7.147C0.671,7.267 0.863,7.315 1.583,7.363L1.583,8.01C0.935,7.999 0.348,7.987 0,7.987" style="fill:rgb(138,115,180);fill-rule:nonzero;"/>
        </g>
        <g transform="matrix(4.16667,0,0,4.16667,451.901,224.296)">
            <path d="M0,7.412C-0.072,7.628 -0.444,7.76 -0.948,7.76L-6.153,7.76L-6.153,7.112C-5.554,7.076 -5.277,7.04 -5.17,6.933C-5.062,6.824 -5.062,6.62 -5.062,6.152L-5.062,1.199C-5.062,0.863 -5.073,0.576 -5.134,0.492C-5.218,0.372 -5.434,0.336 -6.153,0.288L-6.153,-0.348L-0.996,-0.348C-0.396,-0.348 -0.24,-0.108 -0.24,0.24C-0.24,0.563 -0.3,1.283 -0.336,1.631L-0.972,1.631C-1.044,0.972 -1.14,0.743 -1.271,0.647C-1.451,0.516 -1.728,0.479 -2.651,0.479L-3.971,0.479L-3.971,3.179L-3.131,3.179C-2.495,3.179 -2.279,3.142 -2.147,2.975C-2.039,2.843 -1.955,2.591 -1.932,2.255L-1.332,2.255C-1.355,2.566 -1.355,3.19 -1.355,3.538C-1.355,3.73 -1.355,4.378 -1.332,4.869L-1.896,4.869C-1.955,4.414 -2.027,4.258 -2.123,4.126C-2.255,3.946 -2.579,3.946 -3.154,3.946L-3.971,3.946L-3.971,6.392C-3.971,6.74 -3.887,6.86 -3.646,6.896C-3.335,6.933 -2.831,6.944 -2.543,6.944C-1.403,6.944 -1.032,6.824 -0.828,6.62C-0.66,6.44 -0.517,6.068 -0.384,5.613L0.215,5.613C0.203,6.297 0.131,7.052 0,7.412" style="fill:rgb(138,115,180);fill-rule:nonzero;"/>
        </g>
        <g transform="matrix(4.16667,0,0,4.16667,462.607,223.3)">
            <path d="M0,7.987C-0.252,7.987 -0.959,7.999 -1.571,8.01L-1.571,7.363C-0.815,7.327 -0.575,7.243 -0.504,7.123C-0.432,7.004 -0.443,6.739 -0.42,6.116C-0.407,5.72 -0.384,2.542 -0.384,1.774C-0.384,1.199 -0.432,0.923 -0.479,0.839C-0.552,0.718 -0.623,0.634 -0.839,0.598C-1.02,0.563 -1.343,0.527 -1.583,0.527L-1.583,-0.12C-1.319,-0.109 -0.371,-0.097 -0.18,-0.097C0.024,-0.097 0.36,-0.097 0.78,-0.12C3.935,4.545 4.51,5.444 4.978,6.223C4.93,4.772 4.918,2.23 4.905,1.774C4.882,1.115 4.869,0.886 4.798,0.755C4.726,0.647 4.51,0.563 3.778,0.527L3.778,-0.12C4.414,-0.109 5.086,-0.097 5.35,-0.097C5.686,-0.097 6.201,-0.109 6.837,-0.12L6.837,0.527C6.141,0.575 5.997,0.623 5.865,0.731C5.77,0.839 5.745,1.018 5.745,1.774C5.733,2.805 5.733,4.161 5.733,5.588C5.733,6.116 5.745,7.099 5.745,7.567C5.745,7.915 5.589,8.107 5.218,8.107C4.953,8.107 4.821,7.963 4.689,7.758C1.331,2.65 0.84,1.93 0.384,1.199C0.396,2.841 0.444,5.756 0.444,6.128C0.444,6.859 0.48,7.04 0.563,7.147C0.672,7.267 0.864,7.315 1.583,7.363L1.583,8.01C0.936,7.999 0.348,7.987 0,7.987" style="fill:rgb(138,115,180);fill-rule:nonzero;"/>
        </g>
        <g transform="matrix(4.16667,0,0,4.16667,497.206,232.439)">
            <path d="M0,3.491C0.12,4.27 0.312,4.511 0.504,4.69C0.78,4.942 1.332,5.122 2.063,5.122C3.215,5.122 3.742,4.522 3.742,3.862C3.742,3.239 3.431,2.891 2.639,2.555L1.14,1.92C-0.096,1.391 -0.432,0.648 -0.432,-0.167C-0.432,-1.45 0.444,-2.482 2.495,-2.482C3.047,-2.482 3.694,-2.398 4.162,-2.182C4.462,-2.038 4.582,-1.811 4.582,-1.414C4.582,-1.103 4.546,-0.635 4.498,-0.203L3.91,-0.203C3.79,-0.983 3.683,-1.235 3.503,-1.378C3.287,-1.559 2.843,-1.63 2.255,-1.63C1.092,-1.63 0.648,-1.019 0.648,-0.371C0.648,0.192 0.888,0.576 1.896,0.984L3.274,1.536C4.45,2.004 4.87,2.711 4.87,3.598C4.87,5.134 3.694,5.973 1.955,5.973C1.248,5.973 0.504,5.83 0.084,5.626C-0.527,5.326 -0.635,4.978 -0.635,4.379C-0.635,4.091 -0.623,3.803 -0.6,3.491L0,3.491Z" style="fill:rgb(138,115,180);fill-rule:nonzero;"/>
        </g>
        <g transform="matrix(4.16667,0,0,4.16667,644.496,224.251)">
            <path d="M0,7.423C-0.084,7.639 -0.407,7.771 -0.911,7.771L-6.092,7.771L-6.092,7.123C-5.492,7.087 -5.217,7.039 -5.108,6.931C-5.001,6.823 -5.001,6.631 -5.001,6.163L-5.001,1.198C-5.001,0.754 -5.013,0.587 -5.085,0.49C-5.156,0.406 -5.349,0.335 -6.092,0.299L-6.092,-0.348C-5.673,-0.337 -4.929,-0.313 -4.509,-0.313C-4.077,-0.313 -3.273,-0.337 -2.771,-0.348L-2.771,0.299C-3.538,0.347 -3.766,0.419 -3.838,0.515C-3.897,0.599 -3.909,0.754 -3.909,1.21L-3.909,6.403C-3.909,6.751 -3.825,6.871 -3.586,6.907C-3.273,6.944 -2.771,6.955 -2.482,6.955C-1.343,6.955 -0.983,6.835 -0.791,6.631C-0.623,6.451 -0.468,6.044 -0.348,5.588L0.229,5.588C0.217,6.26 0.12,7.063 0,7.423" style="fill:rgb(138,115,180);fill-rule:nonzero;"/>
        </g>
        <g transform="matrix(4.16667,0,0,4.16667,674.2,224.296)">
            <path d="M0,7.412C-0.072,7.628 -0.444,7.76 -0.947,7.76L-6.152,7.76L-6.152,7.112C-5.553,7.076 -5.277,7.04 -5.169,6.933C-5.062,6.824 -5.062,6.62 -5.062,6.152L-5.062,1.199C-5.062,0.863 -5.073,0.576 -5.134,0.492C-5.217,0.372 -5.434,0.336 -6.152,0.288L-6.152,-0.348L-0.996,-0.348C-0.396,-0.348 -0.24,-0.108 -0.24,0.24C-0.24,0.563 -0.3,1.283 -0.336,1.631L-0.972,1.631C-1.044,0.972 -1.14,0.743 -1.271,0.647C-1.451,0.516 -1.728,0.479 -2.65,0.479L-3.97,0.479L-3.97,3.179L-3.131,3.179C-2.495,3.179 -2.279,3.142 -2.146,2.975C-2.039,2.843 -1.955,2.591 -1.931,2.255L-1.331,2.255C-1.355,2.566 -1.355,3.19 -1.355,3.538C-1.355,3.73 -1.355,4.378 -1.331,4.869L-1.896,4.869C-1.955,4.414 -2.027,4.258 -2.123,4.126C-2.255,3.946 -2.579,3.946 -3.154,3.946L-3.97,3.946L-3.97,6.392C-3.97,6.74 -3.886,6.86 -3.646,6.896C-3.334,6.933 -2.831,6.944 -2.543,6.944C-1.403,6.944 -1.031,6.824 -0.828,6.62C-0.66,6.44 -0.516,6.068 -0.384,5.613L0.216,5.613C0.204,6.297 0.132,7.052 0,7.412" style="fill:rgb(138,115,180);fill-rule:nonzero;"/>
        </g>
        <g transform="matrix(4.16667,0,0,4.16667,682.46,232.439)">
            <path d="M0,3.491C0.119,4.27 0.312,4.511 0.503,4.69C0.779,4.942 1.331,5.122 2.063,5.122C3.214,5.122 3.741,4.522 3.741,3.862C3.741,3.239 3.43,2.891 2.638,2.555L1.139,1.92C-0.097,1.391 -0.433,0.648 -0.433,-0.167C-0.433,-1.45 0.443,-2.482 2.494,-2.482C3.046,-2.482 3.693,-2.398 4.161,-2.182C4.461,-2.038 4.581,-1.811 4.581,-1.414C4.581,-1.103 4.545,-0.635 4.497,-0.203L3.909,-0.203C3.789,-0.983 3.682,-1.235 3.502,-1.378C3.286,-1.559 2.842,-1.63 2.254,-1.63C1.091,-1.63 0.647,-1.019 0.647,-0.371C0.647,0.192 0.887,0.576 1.895,0.984L3.273,1.536C4.449,2.004 4.869,2.711 4.869,3.598C4.869,5.134 3.693,5.973 1.954,5.973C1.247,5.973 0.503,5.83 0.083,5.626C-0.528,5.326 -0.636,4.978 -0.636,4.379C-0.636,4.091 -0.624,3.803 -0.601,3.491L0,3.491Z" style="fill:rgb(138,115,180);fill-rule:nonzero;"/>
        </g>
        <g transform="matrix(4.16667,0,0,4.16667,710.609,232.439)">
            <path d="M0,3.491C0.119,4.27 0.312,4.511 0.503,4.69C0.779,4.942 1.331,5.122 2.063,5.122C3.214,5.122 3.741,4.522 3.741,3.862C3.741,3.239 3.43,2.891 2.638,2.555L1.139,1.92C-0.097,1.391 -0.433,0.648 -0.433,-0.167C-0.433,-1.45 0.443,-2.482 2.494,-2.482C3.046,-2.482 3.693,-2.398 4.161,-2.182C4.461,-2.038 4.581,-1.811 4.581,-1.414C4.581,-1.103 4.545,-0.635 4.497,-0.203L3.909,-0.203C3.789,-0.983 3.682,-1.235 3.502,-1.378C3.286,-1.559 2.842,-1.63 2.254,-1.63C1.091,-1.63 0.647,-1.019 0.647,-0.371C0.647,0.192 0.887,0.576 1.895,0.984L3.273,1.536C4.449,2.004 4.869,2.711 4.869,3.598C4.869,5.134 3.693,5.973 1.954,5.973C1.247,5.973 0.503,5.83 0.083,5.626C-0.528,5.326 -0.636,4.978 -0.636,4.379C-0.636,4.091 -0.624,3.803 -0.601,3.491L0,3.491Z" style="fill:rgb(138,115,180);fill-rule:nonzero;"/>
        </g>
        <g transform="matrix(4.16667,0,0,4.16667,528.305,222.942)">
            <path d="M0,8.073C-0.275,8.073 -1.127,8.085 -1.643,8.096L-1.643,7.437C-0.899,7.389 -0.731,7.342 -0.636,7.245C-0.563,7.161 -0.552,7.029 -0.552,6.477L-0.552,1.524C-0.552,1.188 -0.563,0.901 -0.624,0.817C-0.708,0.697 -0.924,0.661 -1.643,0.613L-1.643,-0.023L3.598,-0.023C4.21,-0.023 4.39,0.205 4.39,0.552C4.39,0.888 4.33,1.62 4.294,1.956L3.658,1.956C3.563,1.297 3.479,1.068 3.334,0.972C3.166,0.841 2.914,0.804 2.003,0.804L0.54,0.804L0.54,3.659L1.535,3.659C2.159,3.659 2.375,3.611 2.519,3.443C2.614,3.311 2.711,3.048 2.734,2.7L3.322,2.7C3.311,3 3.311,3.659 3.311,3.995C3.311,4.199 3.311,4.858 3.322,5.35L2.771,5.35C2.711,4.894 2.627,4.715 2.543,4.594C2.411,4.415 2.087,4.415 1.523,4.415L0.54,4.415L0.54,6.441C0.54,6.981 0.6,7.126 0.66,7.209C0.768,7.342 1.176,7.389 1.871,7.437L1.871,8.096C1.355,8.085 0.312,8.073 0,8.073" style="fill:rgb(209,130,181);fill-rule:nonzero;"/>
        </g>
        <g transform="matrix(4.16667,0,0,4.16667,566.652,253.733)">
            <path d="M0,-6.729C-1.764,-6.729 -2.698,-5.458 -2.698,-3.491C-2.698,-0.972 -1.644,-0.013 -0.013,-0.013C1.667,-0.013 2.626,-1.212 2.626,-3.407C2.626,-5.746 1.715,-6.729 0,-6.729M-0.036,0.863C-2.615,0.863 -3.851,-0.852 -3.851,-3.323C-3.851,-5.998 -2.279,-7.592 0.048,-7.592C2.675,-7.592 3.777,-5.998 3.777,-3.491C3.777,-0.529 2.099,0.863 -0.036,0.863" style="fill:rgb(209,130,181);fill-rule:nonzero;"/>
        </g>
        <g transform="matrix(4.16667,0,0,4.16667,598.256,240.589)">
            <path d="M0,-0.384C1.104,-0.384 2.146,-0.672 2.146,-2.028C2.146,-2.711 1.774,-3.131 1.223,-3.299C0.947,-3.383 0.323,-3.443 -0.072,-3.443L-0.636,-3.443L-0.636,-0.408C-0.456,-0.408 -0.156,-0.384 0,-0.384M4.029,3.874C3.357,3.874 2.878,3.658 2.494,3.345C1.835,2.806 1.259,1.894 0.384,0.407L0.096,0.407C-0.097,0.407 -0.42,0.395 -0.636,0.384L-0.636,2.255C-0.636,2.794 -0.624,2.902 -0.552,2.986C-0.456,3.106 -0.204,3.166 0.455,3.202L0.455,3.861C-0.084,3.849 -0.972,3.838 -1.271,3.838C-1.571,3.838 -2.268,3.849 -2.818,3.861L-2.818,3.202C-2.231,3.166 -1.955,3.118 -1.848,3.034C-1.751,2.95 -1.728,2.866 -1.728,2.29L-1.728,-2.759C-1.728,-3.202 -1.739,-3.347 -1.823,-3.431C-1.907,-3.515 -2.111,-3.574 -2.818,-3.622L-2.818,-4.258L-0.54,-4.258C0.228,-4.258 1.115,-4.21 1.522,-4.138C2.734,-3.947 3.298,-3.167 3.298,-2.087C3.298,-0.804 2.578,-0.072 1.487,0.239C2.314,1.522 2.734,2.171 3.273,2.626C3.573,2.878 3.729,2.998 3.922,3.082C4.102,3.166 4.281,3.19 4.497,3.202L4.497,3.849C4.425,3.861 4.27,3.874 4.029,3.874" style="fill:rgb(209,130,181);fill-rule:nonzero;"/>
        </g>
        <g transform="matrix(4.16667,0,0,4.16667,166.615,203.052)">
            <path d="M0,-0.002C-0.001,-0.001 -0.002,-0.001 -0.003,0L0,0L0,-0.002Z" style="fill:rgb(78,39,111);fill-rule:nonzero;"/>
        </g>
        <g transform="matrix(-2.80189,-3.08391,-3.08391,2.80189,109.314,230.973)">
            <path d="M-4.303,-14.53C-4.281,-14.574 -4.28,-14.617 -4.285,-14.657C-4.068,-8.104 -4.153,-3.244 -4.303,0.082C-6.104,1.06 -9.208,1.513 -9.977,1.52C-9.434,-5.587 -5.862,-12.769 -4.303,-14.53" style="fill:rgb(70,54,94);fill-rule:nonzero;"/>
        </g>
        <g transform="matrix(4.16667,0,0,4.16667,121.115,224.684)">
            <path d="M0,4.749C-2.339,2.386 -6.026,-1.129 -11.399,-5.693L-11.399,-5.692C-11.352,-5.658 -11.305,-5.619 -11.278,-5.553C-11.168,-3.125 -11.806,4.144 -6.989,9.407C-6.158,10.315 -1.636,11.592 -0.667,12.462C0.407,11.553 1.842,8.598 2.74,7.647C2.229,7.073 1.34,6.104 0,4.749" style="fill:rgb(93,76,123);fill-rule:nonzero;"/>
        </g>
        <g transform="matrix(4.16667,0,0,4.16667,166.521,203.052)">
            <path d="M0,0.017C0.007,0.011 0.013,0.006 0.02,0C0.013,0.004 0.008,0.012 0,0.017" style="fill:rgb(78,39,111);fill-rule:nonzero;"/>
        </g>
        <g transform="matrix(4.16667,0,0,4.16667,170.517,209.231)">
            <path d="M0,19.514C0.003,14.638 -0.062,4.053 -0.625,-1.309C-0.643,-1.477 -0.814,-1.543 -0.937,-1.483L-0.939,-1.483C-0.946,-1.477 -0.952,-1.472 -0.959,-1.466C-0.992,-1.443 -1.023,-1.415 -1.041,-1.368C-1.826,0.71 -4.22,6.175 -9.116,11.356C-10.015,12.307 -11,13.242 -12.074,14.151C-11.687,15.232 -13.196,16.431 -12.328,17.082C-11.973,17.348 -10.273,18.318 -9.902,18.574C-7.546,20.203 -3.49,20.006 -0.459,21.057C-0.116,20.74 -0.022,20.343 -0.001,20.006C0,19.851 0,19.693 0,19.524L0,19.514Z" style="fill:rgb(115,96,151);fill-rule:nonzero;"/>
        </g>
        <g transform="matrix(4.16667,0,0,4.16667,135.056,219.837)">
            <path d="M0,14.408C-0.371,14.152 -0.749,13.9 -1.104,13.634C-1.973,12.982 -2.787,12.302 -3.563,11.606C-4.533,10.736 -5.432,9.84 -6.263,8.932C-11.08,3.669 -13.651,-1.933 -14.624,-4.39C-14.65,-4.455 -14.697,-4.495 -14.745,-4.529C-14.93,-4.658 -15.222,-4.571 -15.247,-4.301C-15.824,1.73 -15.839,13.547 -15.826,17.422C-15.824,18.177 -15.272,18.794 -14.528,18.918C-14.202,18.973 -13.888,19.017 -13.568,19.066L6.295,19.066L6.296,19.062C7.193,19.033 7.73,18.809 8.052,18.512C5.021,17.461 2.355,16.036 0,14.408" style="fill:rgb(138,115,180);fill-rule:nonzero;"/>
        </g>
    </g>
</svg>
